<?xml version="1.0" encoding="UTF-8"?>
<svg version="1.1" xmlns="http://www.w3.org/2000/svg" width="1647" height="1536">
<path d="M0 0 C543.51 0 1087.02 0 1647 0 C1647 506.88 1647 1013.76 1647 1536 C1103.49 1536 559.98 1536 0 1536 C0 1029.12 0 522.24 0 0 Z " fill="#010101" transform="translate(0,0)"/>
<path d="M0 0 C-0.59106034 3.39113406 -1.45491478 6.34131567 -2.8125 9.5 C-4.8523931 14.45930533 -6.44750855 19.4905331 -7.97265625 24.62890625 C-10.31073114 32.3009923 -13.02906605 39.77736092 -15.9375 47.25 C-18.58706012 54.12718477 -21.051069 60.97328892 -23.125 68.046875 C-24.61485767 73.07514463 -26.31764037 78.03345959 -28 83 C-28.66 83 -29.32 83 -30 83 C-30.12117188 83.68707031 -30.24234375 84.37414062 -30.3671875 85.08203125 C-30.53476562 85.98308594 -30.70234375 86.88414062 -30.875 87.8125 C-31.03742188 88.70582031 -31.19984375 89.59914063 -31.3671875 90.51953125 C-32 93 -32 93 -34 96 C-34.56120851 97.5064018 -35.07998972 99.02907729 -35.5625 100.5625 C-36.27618593 102.81449343 -36.94322352 104.88644704 -38 107 C-38.061875 108.216875 -38.12375 109.43375 -38.1875 110.6875 C-38.77104284 116.67853984 -41.20360843 121.96849313 -43.52734375 127.44921875 C-44.83506355 130.60231503 -45.96615754 133.74864038 -47 137 C-47.66 137 -48.32 137 -49 137 C-49.0825 137.928125 -49.165 138.85625 -49.25 139.8125 C-49.85374159 144.29482394 -51.54975944 148.28510318 -53.2578125 152.44921875 C-54.0843764 155.28998837 -54.04300981 156.28017403 -53 159 C-51.39091325 160.60005132 -51.39091325 160.60005132 -49.31640625 161.953125 C-48.18041992 162.75169922 -48.18041992 162.75169922 -47.02148438 163.56640625 C-46.21001953 164.12199219 -45.39855469 164.67757812 -44.5625 165.25 C-42.8957801 166.41994658 -41.23040272 167.59180817 -39.56640625 168.765625 C-38.76734863 169.32701172 -37.96829102 169.88839844 -37.14501953 170.46679688 C-34.68652939 172.22406049 -32.33037973 174.07651197 -30 176 C-24.15604305 180.77506226 -17.99024814 185.09963205 -11.86328125 189.5 C-0.67962694 197.53507757 10.4267965 205.66133607 21.20703125 214.23217773 C25.50827427 217.64431925 29.91935568 220.87367948 34.37890625 224.07421875 C38.69524128 227.24553495 42.85009687 230.61526339 47 234 C46.03652956 240.62925187 44.18687831 246.13773478 41.28125 252.16015625 C39.99585089 255.00919636 39.04474549 257.82729159 38.125 260.8125 C36.70303917 265.26608132 34.92845682 269.23987496 32.75 273.375 C29.11403523 280.38944706 26.48638022 287.62424459 23.85839844 295.06640625 C21.55789303 301.55768455 19.07128286 307.82790272 16 314 C15.34 314 14.68 314 14 314 C13.938125 315.2375 13.87625 316.475 13.8125 317.75 C13.10200105 324.01796333 10.53285911 329.28022702 8 335 C6.71262375 338.07657628 5.45010986 341.16319198 4.1875 344.25 C3.57710487 345.73449097 2.96645089 347.21887554 2.35546875 348.703125 C1.90816406 349.79109375 1.46085937 350.8790625 1 352 C0.34 352 -0.32 352 -1 352 C0.2186425 356.69215975 0.2186425 356.69215975 2.125 361.125 C3.23518586 363.50396971 3.14403872 365.40730309 3 368 C3.66 368 4.32 368 5 368 C5.391875 369.0725 5.78375 370.145 6.1875 371.25 C7.47485962 374.68345855 8.84764 378.0715972 10.265625 381.453125 C13.05447332 388.12598582 15.8182244 394.80868723 18.5625 401.5 C19.03107422 402.63308594 19.49964844 403.76617188 19.98242188 404.93359375 C22.61926861 411.37266285 25.02725129 417.82412953 27.14526367 424.45288086 C27.90759554 426.72463417 28.76941439 428.87827469 29.75 431.0625 C31 434 31 434 31 437 C31.66 437 32.32 437 33 437 C33.23074219 437.58265625 33.46148438 438.1653125 33.69921875 438.765625 C35.59346327 443.52744126 37.52196954 448.27232349 39.5 453 C41.02941173 456.65566707 42.53643691 460.31748643 44 464 C47.44393632 472.64441849 51.02405992 481.20306413 54.984375 489.625 C55.89692148 491.75895484 56.46954237 493.75000522 57 496 C56.93868896 495.2790918 56.87737793 494.55818359 56.81420898 493.81542969 C56.08183338 484.80867871 55.61510988 475.80080965 55.18405151 466.77557373 C54.58348367 454.29709185 53.93559722 441.82898278 52.9375 429.375 C52.85830322 428.37629883 52.77910645 427.37759766 52.69750977 426.34863281 C52.28755782 421.39349043 52.28755782 421.39349043 51.48413086 416.49194336 C51.02402904 414.12368354 50.84599767 411.95069978 50.7890625 409.54296875 C50.76255615 408.69017334 50.7360498 407.83737793 50.70874023 406.95874023 C50.68110596 406.04423096 50.65347168 405.12972168 50.625 404.1875 C50.33078806 396.01851094 49.57110844 388.03066161 48.4375 379.9375 C46.90691054 368.90626523 46.6872605 358.11962659 47 347 C47.66 347 48.32 347 49 347 C49.66 345.35 50.32 343.7 51 342 C51.66 342 52.32 342 53 342 C53 341.01 53 340.02 53 339 C53.66 339 54.32 339 55 339 C55.09667969 338.26523437 55.19335938 337.53046875 55.29296875 336.7734375 C56.09507244 333.62706389 57.23247796 332.09252079 59.3125 329.625 C61.84176098 326.51206341 63.93357951 323.4857147 65.84375 319.9453125 C68.54269066 315.40452719 71.85973174 311.24123881 75 307 C77.85118003 303.09607658 80.54293406 299.16632921 83 295 C83.93442391 293.59731423 84.86935255 292.19496091 85.80737305 290.79467773 C88.11435202 287.32311122 90.3647898 283.81461714 92.625 280.3125 C93.59616523 278.80847174 94.56751211 277.30456074 95.5390625 275.80078125 C95.96396973 275.14247314 96.38887695 274.48416504 96.82666016 273.8059082 C97.87255445 272.19615371 98.93514835 270.59727748 100 269 C100.66 269 101.32 269 102 269 C102.144375 268.38125 102.28875 267.7625 102.4375 267.125 C103 265 103 265 104 263 C104.66 263 105.32 263 106 263 C106.0825 262.484375 106.165 261.96875 106.25 261.4375 C108.46575668 254.23629078 113.72430561 247.76210404 117.875 241.5625 C118.47441406 240.65951172 119.07382812 239.75652344 119.69140625 238.82617188 C122.49438546 234.62778327 125.32482332 230.57177843 128.5078125 226.65234375 C130.6440811 223.82085769 130.6440811 223.82085769 131.203125 220.34375 C129.57311338 217.1684027 127.32934013 214.90424132 124.75 212.5 C124.27175781 212.03980469 123.79351563 211.57960938 123.30078125 211.10546875 C121.8725292 209.73140512 120.43629334 208.36565596 119 207 C115.57742366 203.63840166 112.28372911 200.17845949 109.02012634 196.66441345 C101.84985604 188.95599299 94.51463687 181.42804723 87.05859375 173.99609375 C86.58656147 173.52550159 86.11452919 173.05490944 85.6281929 172.57005692 C82.23488272 169.18892447 78.83665944 165.81275042 75.4375 162.4375 C72.47673672 159.49731691 69.5167058 156.55641614 66.56056213 153.61158752 C64.7398173 151.79826589 62.91683373 149.98718819 61.09117126 148.17881775 C46.63740937 133.7826661 46.63740937 133.7826661 46 129 C46.33 128.34 46.66 127.68 47 127 C47.66 127 48.32 127 49 127 C49.12375 126.4225 49.2475 125.845 49.375 125.25 C50.00648824 122.97664233 50.88858191 121.0746471 52 119 C52.66 119 53.32 119 54 119 C54.103125 118.46375 54.20625 117.9275 54.3125 117.375 C55.52296942 113.19337835 57.59589285 109.60616073 60 106 C60.66 106 61.32 106 62 106 C62.309375 104.5459375 62.309375 104.5459375 62.625 103.0625 C64.00927149 98.16739501 66.75454033 93.8892601 70 90 C70.66 90 71.32 90 72 90 C72.3403125 89.0409375 72.3403125 89.0409375 72.6875 88.0625 C74.48741547 83.86269724 76.73514734 79.96349216 79 76 C79.556875 74.989375 80.11375 73.97875 80.6875 72.9375 C81.120625 72.298125 81.55375 71.65875 82 71 C82.66 71 83.32 71 84 71 C84.66 69.02 85.32 67.04 86 65 C86.66 65 87.32 65 88 65 C88.185625 64.05125 88.37125 63.1025 88.5625 62.125 C89.83199304 57.56594469 92.52531912 54.16769117 95.34375 50.4296875 C96.98841074 48.01700122 98.02402534 45.74248878 99 43 C99.66 43 100.32 43 101 43 C101.433125 41.9171875 101.433125 41.9171875 101.875 40.8125 C103.4375 36.90625 103.4375 36.90625 105 33 C105.66 33 106.32 33 107 33 C107.103125 32.4225 107.20625 31.845 107.3125 31.25 C108.11056805 28.63814092 109.31467879 27.13906154 111 25 C112.02611949 23.34928604 113.02308143 21.68029994 114 20 C114.639375 18.906875 115.27875 17.81375 115.9375 16.6875 C118.1168536 12.86732032 120.06114174 8.94696146 122 5 C122.66 5 123.32 5 124 5 C124 4.01 124 3.02 124 2 C129.91872116 2.35029166 135.64299697 3.05044195 141.4375 4.32421875 C142.66033691 4.59258545 143.88317383 4.86095215 145.14306641 5.13745117 C146.41585449 5.42209229 147.68864258 5.7067334 149 6 C150.2586084 6.28141846 151.5172168 6.56283691 152.81396484 6.8527832 C156.67036901 7.72370295 160.52298635 8.60987777 164.375 9.5 C165.0261377 9.64775879 165.67727539 9.79551758 166.34814453 9.94775391 C173.45063059 11.55995305 180.25153387 13.25683971 187 16 C188.39183834 16.50744796 189.78649881 17.00720884 191.18359375 17.5 C191.87880127 17.74564697 192.57400879 17.99129395 193.2902832 18.24438477 C194.35315552 18.61841431 194.35315552 18.61841431 195.4375 19 C196.18539795 19.26417725 196.9332959 19.52835449 197.70385742 19.80053711 C201.39347856 21.09980137 205.08720287 22.36849451 208.8125 23.5625 C214.33891333 25.39062912 219.65910955 27.69384324 225 30 C225.64050293 30.27440918 226.28100586 30.54881836 226.94091797 30.83154297 C236.30020721 34.85410278 245.5030751 39.1518124 254.625 43.6875 C255.99277588 44.36449951 255.99277588 44.36449951 257.38818359 45.05517578 C262.11631025 47.43012538 266.66594088 49.93923591 271.11914062 52.79663086 C272.9746938 53.98380916 274.85192041 55.12173824 276.74609375 56.24609375 C283.6228339 60.32832761 290.40769496 64.46779028 297 69 C298.24971209 69.84417638 299.49974276 70.68788121 300.75 71.53125 C307.73641882 76.26502303 314.57475822 81.05414579 321.08203125 86.44140625 C323.12363588 88.15049374 323.12363588 88.15049374 326 90 C326 90.66 326 91.32 326 92 C326.55300781 92.24492187 327.10601563 92.48984375 327.67578125 92.7421875 C335.70575149 97.08781845 343.64196061 104.45357425 350 111 C350 111.66 350 112.32 350 113 C350.99 113.33 351.98 113.66 353 114 C354.71108689 115.62102968 356.37253306 117.29503463 358 119 C358.7425 119.721875 359.485 120.44375 360.25 121.1875 C363.47108601 124.48179251 366.53990548 127.89275845 369.609375 131.328125 C371.15355791 133.05397649 372.7051534 134.77323718 374.265625 136.484375 C383.11807162 146.20349472 391.19996551 156.42320904 399 167 C399.66902344 167.89460937 400.33804688 168.78921875 401.02734375 169.7109375 C405.9216737 176.32070586 410.41843664 183.1469803 414.79833984 190.10253906 C416.04694388 192.07412593 417.31336401 194.03346014 418.58203125 195.9921875 C423.1389514 203.08016201 427.17474394 210.08281876 430.55859375 217.82421875 C432.6305942 222.38935796 435.05264252 226.74350004 437.484375 231.125 C438.84936742 233.71426398 439.96107878 236.26768296 441 239 C441.474375 240.093125 441.94875 241.18625 442.4375 242.3125 C443.52642591 244.82791885 444.50735303 247.35937524 445.4375 249.9375 C446.43733032 252.65654417 447.5758279 255.20059504 448.92016602 257.765625 C450.90284618 261.68961455 452.43622465 265.65114871 453.83984375 269.8125 C454.21098801 270.89723854 454.21098801 270.89723854 454.58963013 272.00389099 C455.38116861 274.33303416 456.16091952 276.66582968 456.9375 279 C457.33810135 280.19703049 457.33810135 280.19703049 457.74679565 281.41824341 C461.95018551 294.04295483 465.25652081 306.59849886 467.57373047 319.71435547 C468.12658508 322.67874543 468.8678837 325.58186834 469.625 328.5 C471.97372383 338.49202851 472.91474992 348.80784436 474 359 C474.0803635 359.73039177 474.16072701 360.46078353 474.24352577 361.21330838 C475.88038589 376.33716205 476.28710694 391.2920738 476.26069641 406.49502563 C476.2637239 408.99684111 476.26761635 411.49865567 476.27228898 414.00046861 C476.28037884 419.39891889 476.28239175 424.79731613 476.27878571 430.19577026 C476.27343773 438.22345098 476.27961445 446.25109549 476.28786864 454.27877227 C476.30304301 469.45146206 476.30482081 484.62413506 476.30234561 499.79683085 C476.30050828 511.51054568 476.30228176 523.22425506 476.30657005 534.93796921 C476.30717246 536.62470934 476.30777366 538.31144948 476.30837366 539.99818962 C476.30928096 542.54026676 476.31018963 545.0823439 476.31110601 547.62442104 C476.3195245 571.22981663 476.32387851 594.83521018 476.31969929 618.44060707 C476.31954291 619.3288997 476.31938654 620.21719232 476.31922542 621.13240291 C476.31841971 625.63402494 476.31757393 630.13564696 476.31671212 634.63726898 C476.31654103 635.53121869 476.31636994 636.4251684 476.31619367 637.3462075 C476.31584701 639.15398169 476.31549848 640.96175587 476.31514808 642.76953006 C476.3097852 670.92855975 476.31774191 699.08755817 476.33618164 727.24658203 C476.35689937 758.9209856 476.36762543 790.5953698 476.36360615 822.26978052 C476.36321083 825.64658316 476.36284928 829.0233858 476.36250877 832.40018845 C476.36241804 833.23157925 476.36232731 834.06297006 476.36223383 834.91955453 C476.36106862 847.46149041 476.36770985 860.00340669 476.37832069 872.54533768 C476.39036991 886.8015152 476.39193422 901.05764955 476.37953053 915.31382771 C476.3729031 923.28766234 476.37453052 931.26139372 476.38811904 939.23522009 C476.39733793 945.19137008 476.39084463 951.14743607 476.37827124 957.10358219 C476.37561589 959.51092828 476.37801705 961.91828643 476.38600711 964.32562073 C476.45646215 987.13731287 476.45646215 987.13731287 473 997 C472.69988913 997.97174341 472.39977827 998.94348682 472.09057313 999.944677 C466.87662707 1016.57030901 452.69866447 1030.74195154 437.58984375 1038.82421875 C427.84108726 1043.44676345 420.21156214 1045.29793981 409.49278259 1045.30107117 C408.33947325 1045.30913011 407.1861639 1045.31718905 405.99790579 1045.3254922 C402.81003943 1045.3455969 399.62228879 1045.35681738 396.43437183 1045.36406267 C392.99123081 1045.37396389 389.54815474 1045.39514305 386.10505676 1045.41456604 C377.8009008 1045.45873022 369.49673101 1045.48352113 361.19249067 1045.5053539 C358.06428276 1045.51381695 354.93607875 1045.52341057 351.80787415 1045.53300887 C338.01568469 1045.57515417 324.22349202 1045.61109678 310.43125057 1045.63057232 C307.06020537 1045.63541162 303.68916024 1045.64029369 300.31811523 1045.64526367 C299.48029424 1045.64649346 298.64247325 1045.64772325 297.77926374 1045.64899031 C284.19091409 1045.66996861 270.60299653 1045.72857484 257.01484316 1045.80264618 C243.05893388 1045.87810004 229.10324546 1045.91971139 215.14713198 1045.92813712 C207.31302709 1045.93371792 199.47957866 1045.95424212 191.64567375 1046.01270103 C184.97841597 1046.06235988 178.31196035 1046.0814819 171.64453476 1046.06053879 C168.24268519 1046.05079466 164.84250509 1046.0556558 161.44089127 1046.09976578 C157.75259358 1046.13995268 154.06853971 1046.12489336 150.38023376 1046.0957489 C149.30523823 1046.12060023 148.2302427 1046.14545157 147.12267154 1046.17105597 C140.04095365 1046.03404361 140.04095365 1046.03404361 137.03315461 1043.04621089 C135.47687866 1040.75474137 134.20200373 1038.49286552 133 1036 C132.38125 1034.845 131.7625 1033.69 131.125 1032.5 C128.41367016 1024.06475162 130.6913712 1016.12287846 132.56567383 1007.73205566 C137.2893113 986.17564711 136.57784046 965.31016965 134.72167969 943.40258789 C133.99159062 934.32227104 133.77342709 925.29171922 133.75 916.1875 C133.73646484 914.23106567 133.73646484 914.23106567 133.72265625 912.23510742 C133.79118207 889.91424795 133.79118207 889.91424795 139.11328125 880.75390625 C140.55378064 877.90463652 140.73684825 875.15782098 141 872 C140.19691406 871.75894531 139.39382813 871.51789062 138.56640625 871.26953125 C134.18919719 869.71137906 130.10879368 867.72328492 125.9375 865.6875 C120.46173365 863.04768791 115.0270386 860.52853417 109.3125 858.4375 C101.5635144 855.56968784 94.32114249 851.8028675 87 848 C86.35740234 847.6709668 85.71480469 847.34193359 85.05273438 847.00292969 C74.53838194 841.61687479 63.71445278 835.96531823 54.72265625 828.23046875 C52.32875239 825.78875961 52.32875239 825.78875961 50 826 C49.5153125 826.85980469 49.030625 827.71960937 48.53125 828.60546875 C42.18536336 839.81509616 35.45828996 850.74726499 28.5078125 861.59375 C27.32225323 863.48573059 26.20931586 865.42323146 25.125 867.375 C12.54609944 889.63807504 -6.08679779 910.01945469 -26.1875 925.62890625 C-30.79559126 929.51378318 -34.9615156 933.84415462 -39.16870117 938.1550293 C-42.97863796 942.04565049 -46.89480819 945.70071892 -51.02026367 949.25390625 C-54.33648069 952.17875322 -57.44838777 955.30036515 -60.5625 958.4375 C-61.22233887 959.09999756 -61.88217773 959.76249512 -62.56201172 960.44506836 C-66.22019338 964.13915019 -69.77802876 967.87012115 -73.12890625 971.84765625 C-75.29313208 974.33719369 -77.54619219 976.73100745 -79.80688477 979.1328125 C-92.46884828 992.00846793 -92.46884828 992.00846793 -96.0703125 1008.98828125 C-96.03550781 1009.98408203 -96.03550781 1009.98408203 -96 1011 C-95.43539063 1011.27972656 -94.87078125 1011.55945312 -94.2890625 1011.84765625 C-92.77536644 1012.60967048 -91.26983236 1013.38814175 -89.7734375 1014.18359375 C-84.72317942 1016.82387525 -79.87017847 1018.72422678 -74.390625 1020.2578125 C-68.77993627 1021.99969299 -63.73353343 1024.35328631 -60 1029 C-59.46875 1031.875 -59.46875 1031.875 -59.5 1035 C-59.48453125 1036.546875 -59.48453125 1036.546875 -59.46875 1038.125 C-60.16147751 1041.87387828 -60.88407209 1042.7823064 -64 1045 C-67.38037192 1045.60540218 -70.73081988 1045.53478067 -74.15698242 1045.50120544 C-75.20140629 1045.50673984 -76.24583015 1045.51227424 -77.32190323 1045.51797634 C-80.83333139 1045.53162544 -84.34405399 1045.51658959 -87.85546875 1045.50170898 C-90.36857913 1045.50549078 -92.88168743 1045.51098966 -95.39479065 1045.51808167 C-101.52117696 1045.53062228 -107.64730038 1045.52444624 -113.77367359 1045.50940608 C-120.91418194 1045.49254467 -128.054639 1045.49575682 -135.1951611 1045.49950016 C-147.94509036 1045.50538212 -160.69492097 1045.49119872 -173.44482422 1045.46655273 C-185.80065619 1045.44267132 -198.15635613 1045.43553233 -210.51220703 1045.44604492 C-223.97220861 1045.45747648 -237.43214906 1045.4593535 -250.89214993 1045.44494683 C-252.33025042 1045.44342106 -253.76835091 1045.4419007 -255.20645142 1045.44038582 C-255.91395926 1045.439628 -256.6214671 1045.43887019 -257.35041457 1045.43808941 C-262.31966839 1045.43336067 -267.28889481 1045.43518828 -272.25814819 1045.43945122 C-278.96241318 1045.4449178 -285.6664696 1045.43404758 -292.37071037 1045.41249657 C-294.82642949 1045.40695029 -297.28216615 1045.40644346 -299.73788643 1045.41144943 C-303.10117296 1045.4174434 -306.46391113 1045.4048177 -309.82714844 1045.38768005 C-310.78943957 1045.3936901 -311.75173071 1045.39970014 -312.74318218 1045.40589231 C-330.23032677 1045.24488309 -345.84999583 1037.61408395 -358.44140625 1025.6875 C-368.32062364 1015.25665118 -375.43564113 1002.39210162 -377 988 C-377.33 987.67 -377.66 987.34 -378 987 C-378.09825427 985.65135465 -378.12749451 984.2976052 -378.12880117 982.94538611 C-378.13207336 982.06446129 -378.13534555 981.18353647 -378.13871691 980.27591696 C-378.13723328 979.29506222 -378.13574966 978.31420749 -378.13422108 977.30362988 C-378.13657331 976.2674498 -378.13892554 975.23126972 -378.14134905 974.16369024 C-378.1480774 970.64461363 -378.14757967 967.12557362 -378.14717102 963.60649109 C-378.15046735 961.07645623 -378.15419242 958.54642189 -378.1583125 956.01638824 C-378.16731119 949.76143722 -378.1715646 943.5064973 -378.17383147 937.25154068 C-378.17678769 929.76295869 -378.18548219 922.27438616 -378.19424575 914.78580911 C-378.21512429 896.6728782 -378.22556868 878.55994563 -378.23437535 860.44700548 C-378.23858048 851.87285327 -378.24380293 843.29870176 -378.24905988 834.72455014 C-378.26696072 805.36204397 -378.28195213 775.9995376 -378.28938007 746.63702679 C-378.28985483 744.79217336 -378.29033072 742.94731994 -378.29080774 741.10246651 C-378.29104411 740.18758591 -378.29128049 739.27270531 -378.29152403 738.33010106 C-378.29272521 733.69492088 -378.29394066 729.05974071 -378.29516602 724.42456055 C-378.29540617 723.5046919 -378.29564632 722.58482326 -378.29589374 721.63707981 C-378.30377286 691.86533931 -378.32717048 662.09363883 -378.35972196 632.32191579 C-378.39408748 600.83333369 -378.41373788 569.34477497 -378.41702431 537.85617381 C-378.41744183 534.39281737 -378.41792139 530.92946094 -378.41844749 527.46610451 C-378.41857069 526.61335186 -378.41869388 525.7605992 -378.4188208 524.88200556 C-378.42114555 511.20321508 -378.43676598 497.52447125 -378.45728934 483.84569734 C-378.47763466 470.06564859 -378.48298395 456.28565538 -378.47351871 442.5055944 C-378.46833586 434.33745891 -378.47402695 426.16950943 -378.49605338 418.00140104 C-378.51132145 411.8712999 -378.50520663 405.74138287 -378.49138286 399.61128221 C-378.48902505 397.15389566 -378.4932336 394.69649062 -378.50521151 392.23913213 C-378.58016275 375.82658078 -377.07768849 360.11623639 -374.45310881 343.91612086 C-373.84052892 339.97367491 -373.37709388 336.02778147 -372.9375 332.0625 C-372.11674142 325.23994432 -370.70207361 318.65267629 -369 312 C-368.80535156 311.22140625 -368.61070312 310.4428125 -368.41015625 309.640625 C-368.27480469 309.09921875 -368.13945312 308.5578125 -368 308 C-367.34 308 -366.68 308 -366 308 C-365.82404297 306.30617188 -365.82404297 306.30617188 -365.64453125 304.578125 C-365.05117376 299.85204818 -363.93137773 295.34184583 -362.6875 290.75 C-362.46312256 289.91227051 -362.23874512 289.07454102 -362.00756836 288.21142578 C-360.24447642 281.7164832 -358.23911903 275.34685537 -356 269 C-355.55329615 267.66192202 -355.1080891 266.32334378 -354.6640625 264.984375 C-351.87475277 256.68777407 -348.69330937 248.89580123 -344.61328125 241.1484375 C-342.90952493 237.82343121 -341.45882587 234.43866099 -340 231 C-334.72903737 219.85367102 -334.72903737 219.85367102 -331.75 215.625 C-329.89263054 213.10086222 -329.89263054 213.10086222 -329.125 210.25 C-327.4714788 205.47316097 -324.97433336 201.08970837 -322 197 C-321.34 197 -320.68 197 -320 197 C-319.76410156 196.14792969 -319.52820313 195.29585937 -319.28515625 194.41796875 C-317.85083226 190.60327728 -315.82606307 187.56894539 -313.4375 184.3125 C-310.2173672 179.93813958 -310.2173672 179.93813958 -308 175 C-307.34 175 -306.68 175 -306 175 C-305.74089844 174.26652344 -305.48179687 173.53304687 -305.21484375 172.77734375 C-303.95994739 169.90843278 -302.56205767 167.96113779 -300.5625 165.5625 C-298.17138227 162.66053306 -295.79700559 159.75741018 -293.51953125 156.765625 C-286.99069891 148.21680891 -279.90172545 140.38209487 -272.49316406 132.59033203 C-270.64931247 130.62649141 -268.87797047 128.60763221 -267.125 126.5625 C-263.63716131 122.52441704 -260.04076717 118.4927091 -256 115 C-255.34 115 -254.68 115 -254 115 C-253.62875 114.13375 -253.62875 114.13375 -253.25 113.25 C-251.81700012 110.67060021 -250.21575324 108.93878408 -248 107 C-247.34 107 -246.68 107 -246 107 C-246 106.34 -246 105.68 -246 105 C-244.12109375 103.2578125 -244.12109375 103.2578125 -241.4375 101.125 C-239.93703125 99.92423828 -239.93703125 99.92423828 -238.40625 98.69921875 C-237.85839844 98.26528809 -237.31054688 97.83135742 -236.74609375 97.38427734 C-234.27893116 95.42834727 -231.82506316 93.45597083 -229.36962891 91.48535156 C-227.43465509 89.93522091 -225.49483571 88.39130299 -223.5546875 86.84765625 C-221.47559082 85.19017544 -219.42185315 83.51590987 -217.3828125 81.80859375 C-211.81580829 77.16942358 -205.92780751 73.35239076 -199.7578125 69.58081055 C-195.57684081 67.01896992 -191.64357526 64.31319774 -187.77734375 61.29296875 C-185.1033436 59.3477071 -182.23633679 57.82694582 -179.32421875 56.26953125 C-176.97339291 54.98546672 -174.71237269 53.6011981 -172.4375 52.1875 C-165.51961077 48.01548065 -158.26176133 44.52296987 -151 41 C-150.23945312 40.62939453 -149.47890625 40.25878906 -148.6953125 39.87695312 C-125.35346818 28.5356085 -101.14061839 18.59117336 -76 12 C-74.93652344 11.68804687 -73.87304688 11.37609375 -72.77734375 11.0546875 C-49.61047896 4.42065858 -24.14689205 -0.21819481 0 0 Z " fill="#FDFDFC" transform="translate(781,238)"/>
<path d="M0 0 C35.31 0 70.62 0 107 0 C113 12 113 12 113 14 C113.66 14 114.32 14 115 14 C115.31114746 14.6077124 115.62229492 15.2154248 115.94287109 15.84155273 C123.52131258 30.66171261 123.52131258 30.66171261 131.75 45.125 C136.14057904 52.43923608 140.32465583 59.86067175 144.4588623 67.32196045 C145.19045815 68.64147905 145.92375678 69.9600551 146.65881348 71.27764893 C147.69534037 73.13689767 148.72549889 74.99953177 149.75390625 76.86328125 C150.35533447 77.94907471 150.9567627 79.03486816 151.57641602 80.15356445 C152.7510248 82.5021777 153.5289781 84.43743958 154 87 C154.66 87 155.32 87 156 87 C156.56847656 88.09957031 157.13695312 89.19914063 157.72265625 90.33203125 C161.63893737 97.85002933 165.63365879 105.15179194 170.3046875 112.234375 C173.00535471 116.64007174 175.19396377 121.27476068 177.421875 125.93359375 C178.77893933 128.57046381 180.21979808 130.65465461 182 133 C182.99430131 134.87721914 183.95007117 136.77514714 184.875 138.6875 C188.38896948 145.81904495 192.09684055 152.64920699 196.4375 159.3125 C199.52279656 164.09404185 202.06319144 169.00880288 204.55078125 174.12109375 C206.27223287 177.54079684 208.22306509 180.76541122 210.22265625 184.02734375 C212.62095985 188.03857241 214.90864017 192.10749932 217.1875 196.1875 C217.61579102 196.94820801 218.04408203 197.70891602 218.48535156 198.49267578 C220.37705188 201.89254345 222.16940674 205.26427223 223.671875 208.85546875 C225.0959253 212.22711726 226.95904082 214.97147993 229 218 C229.67966676 219.66140763 230.34938905 221.32700041 231 223 C231.66 223.66 232.32 224.32 233 225 C233 226.32 233 227.64 233 229 C233.66 229 234.32 229 235 229 C243.26435496 244.3803132 243.26435496 244.3803132 246.796875 251.65625 C247.84042641 253.68914237 248.93804594 255.66527132 250.07519531 257.64648438 C250.71038086 258.75314453 251.34556641 259.85980469 252 261 C251.9959358 260.41561692 251.9918716 259.83123384 251.98768425 259.22914219 C251.89204467 244.9805872 251.85197554 230.73277034 251.87302971 216.4838953 C251.88188502 209.59296467 251.87223899 202.70300514 251.81835938 195.81225586 C251.76639275 189.15940999 251.76688208 182.50788494 251.79904556 175.85482597 C251.80279036 173.31954948 251.78909716 170.78418404 251.75750351 168.24910164 C251.51430813 147.31445263 251.51430813 147.31445263 255.17657471 142.49667358 C257.6913464 140.19809734 260.00952957 138.60333987 263 137 C264.24798935 136.03426274 265.48202026 135.0495547 266.6875 134.03125 C267.78954493 133.18473061 268.89369408 132.3409431 270 131.5 C276.72288282 126.3030407 283.27621021 120.90659401 289.1484375 114.74609375 C291 113 291 113 293 113 C293 112.34 293 111.68 293 111 C294.50390625 109.51953125 294.50390625 109.51953125 296.5625 107.8125 C299.3253868 105.46720242 301.96679757 103.09170595 304.5 100.5 C306.96207886 97.98721471 309.51228018 95.6595685 312.1875 93.375 C315.18122058 90.80978101 317.55706826 88.10064414 320 85 C320.66 85 321.32 85 322 85 C322.25652344 84.47019531 322.51304687 83.94039062 322.77734375 83.39453125 C328.97602541 71.25462117 336.19562344 59.36168888 343.625 47.9375 C347.81881509 41.29970301 351.11577522 34.00651023 354.453125 26.91015625 C354.88109375 26.01167969 355.3090625 25.11320313 355.75 24.1875 C356.29914063 23.00220703 356.29914063 23.00220703 356.859375 21.79296875 C358 20 358 20 361 19 C361 203.14 361 387.28 361 577 C356.72718119 575.9317953 356.16562407 575.35081671 353.3125 572.3125 C349.3046438 568.63048577 345.3700586 566.7673053 340.25 565.125 C333.24739285 562.87241308 326.59922846 560.18878591 319.9375 557.0625 C319.06963867 556.66756348 318.20177734 556.27262695 317.30761719 555.86572266 C309.72786492 552.25429688 302.8045195 547.72635581 299 540 C298.68774414 537.37548828 298.68774414 537.37548828 298.78515625 534.5703125 C298.83615479 533.01703247 298.83615479 533.01703247 298.88818359 531.43237305 C298.94570801 530.34093994 299.00323242 529.24950684 299.0625 528.125 C299.11486816 527.00327393 299.16723633 525.88154785 299.22119141 524.72583008 C299.72888858 515.98978536 301.27560304 508.32624689 304 500 C306.21821073 492.09433902 307.72947897 484.15676937 308.99829102 476.0534668 C309.48947341 472.93223518 309.99870262 470.00389214 311 467 C311.66 467 312.32 467 313 467 C313.04898437 466.33355469 313.09796875 465.66710938 313.1484375 464.98046875 C313.69742797 458.21274142 314.69517429 451.65882025 316 445 C316.39047049 442.98972346 316.77840987 440.97901674 317.16259766 438.9675293 C317.543386 436.97501592 317.92974941 434.98357039 318.31640625 432.9921875 C319.74339106 425.03677185 320.22844273 417.13760167 320.3125 409.0625 C320.34150391 408.13759766 320.37050781 407.21269531 320.40039062 406.25976562 C320.46849339 398.78417702 319.16000913 391.78222819 314.24926758 385.90454102 C312.56086978 384.18584053 310.80149821 382.59925101 309 381 C304.94505005 377.04143257 301.09744665 372.9077839 297.25 368.75 C291.948799 363.04421722 286.55727855 357.45784414 281 352 C280.19175781 351.17628906 279.38351562 350.35257813 278.55078125 349.50390625 C276.20335117 347.19961425 273.81173392 345.12249304 271.25 343.0625 C267.80128436 340.28217609 264.37718733 337.48337402 260.99609375 334.62109375 C253.41595123 328.23200471 245.85278505 322.36824087 237.421875 317.15234375 C233.70120244 314.84574183 230.12559639 312.35409598 226.5625 309.8125 C226.00731689 309.42030273 225.45213379 309.02810547 224.88012695 308.62402344 C217.80520602 303.54698965 212.19053411 298.49649766 207.375 291.1875 C206.9013501 290.4855249 206.4277002 289.7835498 205.93969727 289.06030273 C203.00808227 284.67022829 200.27623927 280.22482299 197.90234375 275.50390625 C197.06970593 273.81115484 197.06970593 273.81115484 195 273 C194.29930675 271.34735025 193.63838274 269.6777037 193 268 C192.09754458 266.27384156 191.16450502 264.56344595 190.20703125 262.8671875 C189.65853516 261.89523437 189.11003906 260.92328125 188.54492188 259.921875 C187.97322266 258.91640625 187.40152344 257.9109375 186.8125 256.875 C185.98395508 255.40160156 185.98395508 255.40160156 185.13867188 253.8984375 C181.7654599 247.94340591 178.20646862 242.15190709 174.50219727 236.39794922 C172.8235758 233.71837501 171.39398006 230.99214876 170.0625 228.125 C167.27079612 222.34488681 163.9951397 217.01488111 160.5390625 211.6171875 C159 209 159 209 159 207 C158.34 207 157.68 207 157 207 C156.505 205.80375 156.01 204.6075 155.5 203.375 C153.12044585 198.02516323 150.21832938 193.01406742 147.28125 187.95703125 C144.74834166 183.58998621 142.31355601 179.17019785 139.875 174.75 C136.87036241 169.31639286 133.81146608 163.93759599 130.5703125 158.640625 C128.00403321 154.32519018 125.58185033 149.92749252 123.15795898 145.53076172 C121.28525212 142.16195409 119.34666424 139.06649989 117 136 C116.3125 133.75 116.3125 133.75 116 132 C106.84652984 131.52034217 100.35409635 136.56951407 93.78540039 142.46972656 C89.49332178 146.43763373 85.63565383 150.40952799 82 155 C80.35669763 156.68970792 78.68769072 158.35462601 77 160 C75.97036219 161.01592269 74.9417674 162.03290327 73.9140625 163.05078125 C73.37958496 163.58002197 72.84510742 164.1092627 72.29443359 164.65454102 C67.63537664 169.28157462 63.05157262 173.90773078 58.80078125 178.91796875 C56.45377819 181.63153194 54.00398389 184.24688484 51.5625 186.875 C47.29563746 191.47204947 43.34512188 196.22765589 39.55859375 201.234375 C39.04425781 201.81703125 38.52992188 202.3996875 38 203 C37.34 203 36.68 203 36 203 C35.61521484 203.81984375 35.61521484 203.81984375 35.22265625 204.65625 C33.27468554 208.39037915 30.87853834 211.83248251 28.55859375 215.34375 C27.19857542 217.66157572 26.45097683 219.38062774 26 222 C25.34 222 24.68 222 24 222 C23.87625 222.56203125 23.7525 223.1240625 23.625 223.703125 C20.11686298 237.99878337 13.80517935 251.53043542 7.4765625 264.765625 C5.64515782 268.77727336 4.25927066 272.77773954 3 277 C2.01 277 1.02 277 0 277 C0 185.59 0 94.18 0 0 Z " fill="#030403" transform="translate(649,694)"/>
<path d="M0 0 C0.66 0 1.32 0 2 0 C3.29493195 2.39411837 4.58602172 4.7901788 5.875 7.1875 C6.42220703 8.19780273 6.42220703 8.19780273 6.98046875 9.22851562 C8.87812617 12.765059 10.53001085 16.26150908 12 20 C13.09131732 22.15239663 14.19680356 24.29763875 15.3125 26.4375 C23.5756237 42.64343774 28.05004455 60.28021978 24.28125 78.46875 C23.34372179 81.09987755 22.28320332 83.52052003 21 86 C20.57976562 86.84433594 20.15953125 87.68867187 19.7265625 88.55859375 C18.88284356 90.23836145 18.02903647 91.91310908 17.1640625 93.58203125 C15.70588249 96.61093536 14.65756397 99.68416198 13.67578125 102.89453125 C13 105 13 105 11.9296875 107.203125 C10.62053219 111.14159223 10.74859267 114.81715908 10.8125 118.9375 C10.81314453 119.72318359 10.81378906 120.50886719 10.81445312 121.31835938 C10.84720228 125.66671891 11.25570547 129.70867685 12 134 C12.11349533 136.39395957 12.17465641 138.790886 12.1875 141.1875 C12.20167969 142.39792969 12.21585938 143.60835937 12.23046875 144.85546875 C12 148 12 148 10 151 C9.41162754 152.71383721 8.87280046 154.44519841 8.375 156.1875 C7.98441406 157.53908203 7.98441406 157.53908203 7.5859375 158.91796875 C7.29589844 159.94857422 7.29589844 159.94857422 7 161 C6.34 161 5.68 161 5 161 C4.63648438 162.81564453 4.63648438 162.81564453 4.265625 164.66796875 C2.85276059 171.01718313 0.78326545 177.13989162 -1.25 183.3125 C-3.76004783 190.9732761 -6.21709709 198.62290874 -8.36572266 206.39331055 C-13.11084657 223.29386576 -19.53780115 232.72689875 -34.07275391 242.66113281 C-42.05876578 248.20905391 -51.56442369 255.12884738 -56 264 C-56.66 264 -57.32 264 -58 264 C-58.26296875 264.55816406 -58.5259375 265.11632813 -58.796875 265.69140625 C-60.12312014 268.23624676 -61.65657833 270.55095628 -63.25 272.9375 C-69.46976812 282.6413706 -73.66586528 293.35643907 -78 304 C-78.66 304 -79.32 304 -80 304 C-80.2475 304.66 -80.495 305.32 -80.75 306 C-83.36994364 312.28786474 -86.49800383 317.94329671 -90.35546875 323.55859375 C-92.78765645 327.16932371 -95.03077317 330.89578113 -97.2890625 334.6171875 C-99.00196105 337.00273114 -100.63268824 338.3104587 -103 340 C-103.23392302 316.47764705 -103.41010056 292.95546921 -103.51812172 269.43218613 C-103.56961821 258.50908198 -103.63978642 247.58670184 -103.75439453 236.6640625 C-103.85427579 227.14038985 -103.91863124 217.61724167 -103.94088495 208.09305978 C-103.95388765 203.05285197 -103.98429722 198.01414414 -104.05730057 192.97441864 C-104.12556256 188.22317648 -104.14604082 183.47404087 -104.13107681 178.72235489 C-104.13381109 176.98571668 -104.15347992 175.24900257 -104.19205475 173.51279068 C-104.37857743 164.67866969 -104.21718545 158.0627909 -98.18515015 151.1987915 C-96.47372283 149.44911331 -94.74611389 147.71506371 -93 146 C-85.28050628 136.54124787 -85.18339785 128.51844814 -85.64624023 116.89746094 C-86.00937091 106.1266784 -84.12026255 100.2154158 -77 92 C-76.14366477 90.56696744 -75.32124159 89.11201162 -74.5625 87.625 C-72.49148064 83.70761422 -70.05351881 80.11346021 -67.5 76.5 C-63.97240028 71.48849451 -60.84131512 66.42752764 -58 61 C-57.05556114 59.24831445 -56.11104899 57.49666742 -55.16455078 55.74609375 C-53.7711736 53.16684884 -52.38555996 50.58345042 -51 48 C-50.34 48 -49.68 48 -49 48 C-48.85304688 47.35933594 -48.70609375 46.71867188 -48.5546875 46.05859375 C-45.90644605 35.8461224 -41.24650688 31.51720117 -32.39453125 26.140625 C-13.90397753 15.37255338 -13.90397753 15.37255338 0 0 Z " fill="#020302" transform="translate(753,891)"/>
<path d="M0 0 C-0.62045463 4.23322844 -2.10523559 7.52290295 -4.0625 11.3125 C-4.61035156 12.38113281 -5.15820312 13.44976563 -5.72265625 14.55078125 C-6.14417969 15.35902344 -6.56570313 16.16726563 -7 17 C-7.66 17 -8.32 17 -9 17 C-9.17015625 17.60585938 -9.3403125 18.21171875 -9.515625 18.8359375 C-11.09444293 24.2946165 -12.93141942 29.53446327 -15.1328125 34.7734375 C-16.50545323 38.29778531 -17.12776982 41.55539646 -17.31640625 45.328125 C-17.35830078 46.12734375 -17.40019531 46.9265625 -17.44335938 47.75 C-17.48267578 48.575 -17.52199219 49.4 -17.5625 50.25 C-17.62727539 51.51070312 -17.62727539 51.51070312 -17.69335938 52.796875 C-17.79908543 54.86440671 -17.90001295 56.93218281 -18 59 C-18.66 59 -19.32 59 -20 59 C-20 60.32 -20 61.64 -20 63 C-20.66 63 -21.32 63 -22 63 C-22.37125 63.85851562 -22.37125 63.85851562 -22.75 64.734375 C-24.19316199 67.35010611 -25.88216222 69.14773456 -28 71.25 C-29.051875 72.30960938 -29.051875 72.30960938 -30.125 73.390625 C-32 75 -32 75 -34 75 C-34.226875 75.5775 -34.45375 76.155 -34.6875 76.75 C-36 79 -36 79 -38.3203125 80.828125 C-41.03729732 83.03022931 -43.01801726 85.26474222 -45.1875 88 C-48.45713901 92.08024835 -51.7615317 96.12160242 -55.125 100.125 C-58.06422806 103.64206392 -60.95182195 107.1822646 -63.75 110.8125 C-64.31332031 111.53050781 -64.87664063 112.24851562 -65.45703125 112.98828125 C-66.40844676 114.22873439 -67.33009546 115.49353034 -68.19921875 116.79296875 C-72.38673452 122.56566399 -78.51553132 125.35484883 -84.6640625 128.64453125 C-89.64174256 131.3084994 -94.43509416 134.25502674 -99.21459961 137.25732422 C-103.67620721 140 -103.67620721 140 -107 140 C-107 109.64 -107 79.28 -107 48 C-91.31090449 40.6784221 -91.31090449 40.6784221 -85.12939453 37.95751953 C-80.85832987 36.03696053 -76.65409473 33.97409404 -72.4375 31.9375 C-63.29602942 27.54179205 -54.10267131 23.27438149 -44.87207031 19.06958008 C-38.11287968 15.98460764 -31.39010114 12.83095818 -24.6875 9.625 C-22.97396923 8.80726884 -21.26042809 7.9895594 -19.546875 7.171875 C-17.39535553 6.1448925 -15.24412542 5.11743059 -13.09570312 4.08398438 C-11.54642881 3.34040369 -9.99222364 2.60711854 -8.4375 1.875 C-7.65246094 1.50117187 -6.86742187 1.12734375 -6.05859375 0.7421875 C-4 0 -4 0 0 0 Z " fill="#050505" transform="translate(1009,640)"/>
<path d="M0 0 C0.33 0 0.66 0 1 0 C2.73623351 15.87407728 3.28842358 31.53416308 3.26069641 47.49502563 C3.2637239 49.99684111 3.26761635 52.49865567 3.27228898 55.00046861 C3.28037884 60.39891889 3.28239175 65.79731613 3.27878571 71.19577026 C3.27343773 79.22345098 3.27961445 87.25109549 3.28786864 95.27877227 C3.30304301 110.45146206 3.30482081 125.62413506 3.30234561 140.79683085 C3.30050828 152.51054568 3.30228176 164.22425506 3.30657005 175.93796921 C3.30717246 177.62470934 3.30777366 179.31144948 3.30837366 180.99818962 C3.30928096 183.54026676 3.31018963 186.0823439 3.31110601 188.62442104 C3.3195245 212.22981663 3.32387851 235.83521018 3.31969929 259.44060707 C3.31954291 260.3288997 3.31938654 261.21719232 3.31922542 262.13240291 C3.31841971 266.63402494 3.31757393 271.13564696 3.31671212 275.63726898 C3.31654103 276.53121869 3.31636994 277.4251684 3.31619367 278.3462075 C3.31584701 280.15398169 3.31549848 281.96175587 3.31514808 283.76953006 C3.3097852 311.92855975 3.31774191 340.08755817 3.33618164 368.24658203 C3.35689937 399.9209856 3.36762543 431.5953698 3.36360615 463.26978052 C3.36321083 466.64658316 3.36284928 470.0233858 3.36250877 473.40018845 C3.36241804 474.23157925 3.36232731 475.06297006 3.36223383 475.91955453 C3.36106862 488.46149041 3.36770985 501.00340669 3.37832069 513.54533768 C3.39036991 527.8015152 3.39193422 542.05764955 3.37953053 556.31382771 C3.3729031 564.28766234 3.37453052 572.26139372 3.38811904 580.23522009 C3.39733793 586.19137008 3.39084463 592.14743607 3.37827124 598.10358219 C3.37561589 600.51092828 3.37801705 602.91828643 3.38600711 605.32562073 C3.4574773 628.46599487 3.4574773 628.46599487 0 638 C-0.33 638 -0.66 638 -1 638 C-1.12514468 631.61762145 -1.12514468 631.61762145 -0.50385616 628.55140143 C-0.01552649 626.07862228 0.12470129 623.88054845 0.1241985 621.3650772 C0.12644579 620.45652156 0.12869308 619.54796593 0.13100848 618.61187831 C0.12838146 617.62069313 0.12575445 616.62950795 0.12304783 615.60828686 C0.12420167 614.54559571 0.12535552 613.48290456 0.12654433 612.38801065 C0.12920536 608.8031071 0.12469299 605.21824785 0.12025452 601.63334656 C0.12069032 599.04690615 0.1215654 596.46046578 0.12284368 593.87402564 C0.12491839 588.23833474 0.12327199 582.6026544 0.11920547 576.96696472 C0.11317547 568.58687414 0.11286921 560.20679022 0.11374746 551.82669787 C0.11506207 537.73069723 0.11171728 523.63470128 0.10573006 509.53870201 C0.09981591 495.57902694 0.09596469 481.61935382 0.09487724 467.65967751 C0.0948085 466.79216812 0.09473976 465.92465873 0.09466894 465.03086118 C0.09433061 460.62533786 0.09402923 456.21981454 0.09374207 451.81429122 C0.09164086 420.59844216 0.08490129 389.38259566 0.07543945 358.16674805 C0.0662572 327.83829766 0.05917252 297.50984798 0.05493164 267.18139648 C0.05480011 266.24677511 0.05466859 265.31215374 0.05453308 264.34921051 C0.05321457 254.96348027 0.05193876 245.57775001 0.05069422 236.19201975 C0.04815791 217.07168277 0.04533665 197.95134583 0.04234314 178.83100891 C0.04220585 177.9518593 0.04206856 177.07270968 0.04192711 176.16691917 C0.03272424 117.44461171 0.01687878 58.72230568 0 0 Z " fill="#A6A7A3" transform="translate(1254,597)"/>
<path d="M0 0 C2.475 0.495 2.475 0.495 5 1 C5 1.66 5 2.32 5 3 C5.99 3.33 6.98 3.66 8 4 C7.86177801 7.14621682 7.71314916 10.29185566 7.5625 13.4375 C7.50352539 14.78424805 7.50352539 14.78424805 7.44335938 16.15820312 C7.40146484 17.01220703 7.35957031 17.86621094 7.31640625 18.74609375 C7.27974854 19.53685303 7.24309082 20.3276123 7.20532227 21.14233398 C7 23 7 23 6 24 C5.91144839 26.6662603 5.88475327 29.30647114 5.90234375 31.97265625 C5.9037587 32.77029892 5.90517365 33.56794159 5.90663147 34.38975525 C5.91224684 36.94737435 5.92480188 39.50490718 5.9375 42.0625 C5.94251302 43.79231645 5.94707627 45.52213426 5.95117188 47.25195312 C5.96222125 51.50133553 5.97949614 55.75065312 6 60 C6.33 60 6.66 60 7 60 C7.02736707 61.39572052 7.04655989 62.79160221 7.0625 64.1875 C7.07990234 65.35345703 7.07990234 65.35345703 7.09765625 66.54296875 C7 69 7 69 6.50123781 71.14205962 C5.85425455 74.83100637 5.86692355 78.4524755 5.8825388 82.18407726 C5.88198414 83.00810853 5.88142949 83.83213979 5.88085803 84.6811417 C5.88021405 87.45421477 5.88674474 90.22722495 5.89320374 93.00028992 C5.89419947 95.00370782 5.8947494 97.00712598 5.89489073 99.01054412 C5.89653947 104.52515976 5.90441576 110.03975188 5.91325247 115.55436003 C5.92166862 121.49778541 5.9242793 127.44121349 5.92750549 133.38464355 C5.93380892 143.68561401 5.94354752 153.9865769 5.95540047 164.28754234 C5.97322537 179.86953545 5.98263245 195.45152747 5.99029111 211.03352846 C5.99340057 217.28443895 5.99678253 223.5353493 6.00016689 229.78625965 C6.00072905 230.82795173 6.00072905 230.82795173 6.00130256 231.89068808 C6.01027511 248.42102337 6.02193664 264.95135648 6.03442383 281.48168945 C6.03496823 282.20501221 6.03551264 282.92833497 6.03607354 283.67357659 C6.04880415 300.55789864 6.06281901 317.44221902 6.07904053 334.32653809 C6.07973772 335.05320024 6.0804349 335.7798624 6.08115322 336.52854462 C6.08467095 340.19287243 6.08819776 343.85720024 6.0917251 347.52152804 C6.09242189 348.24575451 6.09311867 348.96998098 6.09383656 349.71615371 C6.09524332 351.17794412 6.09665159 352.63973452 6.09806137 354.10152492 C6.12128859 378.22922724 6.13775625 402.3569268 6.14673797 426.48463875 C6.14801464 429.88864747 6.1493834 433.29265615 6.15081596 436.69666481 C6.15109731 437.36662545 6.15137866 438.03658608 6.15166853 438.72684855 C6.15643333 449.52806034 6.16860668 460.32925187 6.18370286 471.13045365 C6.19874438 481.97460776 6.20662504 492.81874738 6.20748956 503.66291197 C6.20819627 509.54256393 6.2122556 515.42216618 6.2249527 521.3018055 C6.23649787 526.6759783 6.23897802 532.05007338 6.23401051 537.42425559 C6.23385824 539.37635243 6.23714886 541.32845294 6.24408758 543.28053745 C6.25298473 545.91827198 6.24976447 548.5557114 6.24330235 551.19344616 C6.24884222 551.96487043 6.25438209 552.73629471 6.26008984 553.53109547 C6.2282872 558.7717128 6.2282872 558.7717128 4 561 C4 376.86 4 192.72 4 3 C2.68 3.99 1.36 4.98 0 6 C0 4.02 0 2.04 0 0 Z " fill="#E8ECE6" transform="translate(1006,710)"/>
<path d="M0 0 C6.00982026 6.00982026 3.18477546 21.92196487 3.203125 30.15234375 C3.20595238 31.011001 3.20877975 31.86965824 3.21169281 32.7543354 C3.22658708 37.28357365 3.23588256 41.81278075 3.24023438 46.34204102 C3.24575643 51.01840757 3.26988969 55.69448845 3.29820633 60.37076473 C3.31679079 63.97464356 3.32203569 67.57845225 3.32357025 71.18237495 C3.3265984 72.90759433 3.33463238 74.63281242 3.34775543 76.35798454 C3.36475518 78.76093776 3.36295287 81.16317366 3.35644531 83.56616211 C3.3656601 84.27837418 3.37487488 84.99058624 3.3843689 85.72438049 C3.34762399 90.04200704 3.22441635 90.77558365 0 94 C0 62.98 0 31.96 0 0 Z " fill="#0A0D0D" transform="translate(1257,809)"/>
<path d="M0 0 C0.33 0 0.66 0 1 0 C1 38.28 1 76.56 1 116 C-1.83328987 113.16671013 -2.7191375 111.64553172 -4 108 C-2.68 108 -1.36 108 0 108 C0 72.36 0 36.72 0 0 Z " fill="#DADCDA" transform="translate(901,840)"/>
<path d="M0 0 C0.99 0 1.98 0 3 0 C2.75636719 1.794375 2.75636719 1.794375 2.5078125 3.625 C1.79246222 10.07579119 1.85424349 16.51704874 1.875 23 C1.87113281 24.23878906 1.86726563 25.47757813 1.86328125 26.75390625 C1.86457031 27.92824219 1.86585937 29.10257813 1.8671875 30.3125 C1.86831543 31.38113281 1.86944336 32.44976563 1.87060547 33.55078125 C1.7233893 35.94632828 1.7233893 35.94632828 3 37 C3.1247088 40.24242885 3.15364379 43.25098655 2.5 46.4375 C1.6047702 51.0255527 1.51086828 55.53260485 3 60 C2.01 60.99 1.02 61.98 0 63 C0 42.21 0 21.42 0 0 Z " fill="#111013" transform="translate(1257,745)"/>
<path d="M0 0 C0.66 0.33 1.32 0.66 2 1 C-0.33333333 3.33333333 -2.66666667 5.66666667 -5 8 C-5.79470703 8.85658203 -5.79470703 8.85658203 -6.60546875 9.73046875 C-8 11 -8 11 -10 11 C-10.33 12.32 -10.66 13.64 -11 15 C-11.66 15 -12.32 15 -13 15 C-13 15.66 -13 16.32 -13 17 C-17.38461538 20 -17.38461538 20 -20 20 C-20 21.32 -20 22.64 -20 24 C-21.65 24 -23.3 24 -25 24 C-24.01 22.515 -24.01 22.515 -23 21 C-22.34 21 -21.68 21 -21 21 C-20.7525 20.4225 -20.505 19.845 -20.25 19.25 C-18.81700012 16.67060021 -17.21575324 14.93878408 -15 13 C-14.34 13 -13.68 13 -13 13 C-13 12.34 -13 11.68 -13 11 C-11.25998065 9.44038399 -9.45696803 7.95050425 -7.625 6.5 C-3.68517459 3.39240862 -3.68517459 3.39240862 0 0 Z " fill="#C8D2C8" transform="translate(548,332)"/>
<path d="M0 0 C0.99 0.33 1.98 0.66 3 1 C-1.95 5.95 -6.9 10.9 -12 16 C-12.66 15.67 -13.32 15.34 -14 15 C-13.67 13.35 -13.34 11.7 -13 10 C-12.34 10 -11.68 10 -11 10 C-11 9.34 -11 8.68 -11 8 C-9.35546875 6.5625 -9.35546875 6.5625 -7.1875 5 C-6.47980469 4.484375 -5.77210938 3.96875 -5.04296875 3.4375 C-3.37919271 2.26681246 -1.69269789 1.12846526 0 0 Z " fill="#E8EBE6" transform="translate(780,1136)"/>
<path d="M0 0 C2.69082872 0.17635452 5.32851446 0.61835921 8 1 C8 1.66 8 2.32 8 3 C7.01 3.33 6.02 3.66 5 4 C5.66 4.66 6.32 5.32 7 6 C7 6.66 7 7.32 7 8 C-5.66970387 4.92482916 -5.66970387 4.92482916 -11 3 C-9 1 -9 1 -7.08984375 0.83984375 C-6.37957031 0.87207031 -5.66929687 0.90429688 -4.9375 0.9375 C-3.638125 0.958125 -2.33875 0.97875 -1 1 C-0.67 0.67 -0.34 0.34 0 0 Z " fill="#090C0C" transform="translate(966,248)"/>
<path d="M0 0 C0.99 0 1.98 0 3 0 C3 0.66 3 1.32 3 2 C5.475 2.99 5.475 2.99 8 4 C8 4.66 8 5.32 8 6 C8.66 6 9.32 6 10 6 C10.33 6.99 10.66 7.98 11 9 C9.02 9.66 7.04 10.32 5 11 C2.69 8.69 0.38 6.38 -2 4 C-1.34 3.67 -0.68 3.34 0 3 C0 2.01 0 1.02 0 0 Z " fill="#E8ECE3" transform="translate(863,401)"/>
<path d="M0 0 C3.96 0 7.92 0 12 0 C11.67 0.66 11.34 1.32 11 2 C11.66 2.66 12.32 3.32 13 4 C14 5 15 6 16 7 C12.65035056 8.08754852 11.22387221 8.08735791 7.88671875 6.78515625 C6.83097656 6.21667969 5.77523438 5.64820313 4.6875 5.0625 C3.61886719 4.49660156 2.55023437 3.93070312 1.44921875 3.34765625 C0.64097656 2.90292969 -0.16726563 2.45820313 -1 2 C-0.67 1.34 -0.34 0.68 0 0 Z " fill="#141518" transform="translate(1023,274)"/>
<path d="M0 0 C0.33 0 0.66 0 1 0 C1.04898438 1.26972656 1.09796875 2.53945313 1.1484375 3.84765625 C1.54666159 13.27627835 2.21474581 22.49155114 3.58984375 31.83203125 C4.07947671 35.61386298 4.15528615 39.19548943 4 43 C1.34287748 40.34287748 1.64836766 38.76390038 1.4375 35.0625 C1.24059445 31.75529052 1.05038612 29.15115836 0 26 C-0.08291953 24.0079697 -0.10738177 22.01326287 -0.09765625 20.01953125 C-0.09443359 18.85615234 -0.09121094 17.69277344 -0.08789062 16.49414062 C-0.07951172 15.27919922 -0.07113281 14.06425781 -0.0625 12.8125 C-0.05798828 11.58595703 -0.05347656 10.35941406 -0.04882812 9.09570312 C-0.03703065 6.06375332 -0.02056921 3.03190094 0 0 Z " fill="#595956" transform="translate(827,586)"/>
<path d="M0 0 C0.66 0 1.32 0 2 0 C1.54548816 1.73017508 1.08621143 3.45909877 0.625 5.1875 C0.36976563 6.15042969 0.11453125 7.11335938 -0.1484375 8.10546875 C-0.94766296 10.82210207 -1.9031362 13.39137175 -3 16 C-4.32 15.34 -5.64 14.68 -7 14 C-6.814375 13.443125 -6.62875 12.88625 -6.4375 12.3125 C-5.92448835 9.600867 -6.3359276 7.65628961 -7 5 C-4.525 5.495 -4.525 5.495 -2 6 C-1.34 4.02 -0.68 2.04 0 0 Z " fill="#E0E1DC" transform="translate(764,280)"/>
<path d="M0 0 C1.65 0 3.3 0 5 0 C6.51403812 4.84492197 5.36602172 8.2591011 4 13 C3.67 12.34 3.34 11.68 3 11 C2.01 10.67 1.02 10.34 0 10 C0 6.7 0 3.4 0 0 Z " fill="#ECEFEB" transform="translate(741,329)"/>
<path d="M0 0 C-0.33 1.65 -0.66 3.3 -1 5 C-2.65 4.67 -4.3 4.34 -6 4 C-5.65213292 5.97536745 -5.65213292 5.97536745 -5 8 C-4.34 8.33 -3.68 8.66 -3 9 C-9.52307692 9.36923077 -9.52307692 9.36923077 -11.9375 7.5 C-12.4634375 6.7575 -12.4634375 6.7575 -13 6 C-9.09130466 2.84297684 -5.1385061 0 0 0 Z " fill="#EDEDEB" transform="translate(647,272)"/>
<path d="M0 0 C1.32 0 2.64 0 4 0 C4 0.66 4 1.32 4 2 C4.66 2 5.32 2 6 2 C6 1.34 6 0.68 6 0 C6.66 0 7.32 0 8 0 C7.67 1.65 7.34 3.3 7 5 C6.01 5 5.02 5 4 5 C4 5.66 4 6.32 4 7 C1.36 7.66 -1.28 8.32 -4 9 C-2.80100302 5.9168649 -1.52299523 2.93720508 0 0 Z " fill="#E9ECEB" transform="translate(913,458)"/>
<path d="M0 0 C1.79133978 -0.05391993 3.58313899 -0.09275571 5.375 -0.125 C6.37273438 -0.14820313 7.37046875 -0.17140625 8.3984375 -0.1953125 C11 0 11 0 13 2 C6.565 4.97 6.565 4.97 0 8 C-0.33 7.01 -0.66 6.02 -1 5 C-0.01 4.01 0.98 3.02 2 2 C1.34 2 0.68 2 0 2 C0 1.34 0 0.68 0 0 Z " fill="#0F1713" transform="translate(613,280)"/>
<path d="M0 0 C3.26008643 3.16952847 6.22237877 6.39937989 9 10 C8.67 10.66 8.34 11.32 8 12 C7.01 11.67 6.02 11.34 5 11 C3.33637583 10.65179959 1.67004829 10.31595508 0 10 C-1.125 2.25 -1.125 2.25 0 0 Z " fill="#DBE0DC" transform="translate(1167,389)"/>
<path d="M0 0 C0.33 0 0.66 0 1 0 C2.12074388 5.45006901 2.21863535 10.77271821 2.25 16.3125 C2.270625 17.21162109 2.29125 18.11074219 2.3125 19.03710938 C2.34830346 25.22663207 1.33022268 30.26670324 -1 36 C-1.33 36 -1.66 36 -2 36 C-2.02698189 34.37509046 -2.04638757 32.75005367 -2.0625 31.125 C-2.07410156 30.22007812 -2.08570313 29.31515625 -2.09765625 28.3828125 C-2 26 -2 26 -1 24 C-0.34 24 0.32 24 1 24 C0.67 16.08 0.34 8.16 0 0 Z " fill="#5B5C5B" transform="translate(776,939)"/>
<path d="M0 0 C1 2 1 2 1 5 C-1 7 -1 7 -3 9 C-3.72382467 11.05925139 -3.72382467 11.05925139 -4 13 C-4.33 13.66 -4.66 14.32 -5 15 C-6.65 14.67 -8.3 14.34 -10 14 C-6.84577733 9.17403931 -3.71080883 4.42442592 0 0 Z " fill="#C5CEC5" transform="translate(488,394)"/>
<path d="M0 0 C-2.65848126 5.00099548 -5.25876024 9.7045025 -9 14 C-9.33 12.35 -9.66 10.7 -10 9 C-9.01 8.34 -8.02 7.68 -7 7 C-6.74984127 3.41642759 -6.74984127 3.41642759 -7 0 C-3.86650268 -1.04449911 -3.01031744 -0.93423645 0 0 Z " fill="#181E19" transform="translate(861,314)"/>
<path d="M0 0 C4.4574445 4.4574445 6.35373285 11.86046207 7 18 C6.34 17.34 5.68 16.68 5 16 C2.93125966 15.3574765 2.93125966 15.3574765 1 15 C0.83105557 13.25021843 0.66493691 11.50016388 0.5 9.75 C0.4071875 8.77546875 0.314375 7.8009375 0.21875 6.796875 C0.04199832 4.53697847 0 2.26679807 0 0 Z " fill="#CCCDC9" transform="translate(821,695)"/>
<path d="M0 0 C0.66 0.33 1.32 0.66 2 1 C1.649375 1.78375 1.29875 2.5675 0.9375 3.375 C0.628125 4.24125 0.31875 5.1075 0 6 C0.33 6.66 0.66 7.32 1 8 C-0.45792884 8.05399736 -1.91642712 8.09279177 -3.375 8.125 C-4.18710937 8.14820313 -4.99921875 8.17140625 -5.8359375 8.1953125 C-8 8 -8 8 -10 6 C-8.3811004 4.96951963 -6.75467511 3.95085322 -5.125 2.9375 C-4.22007812 2.36902344 -3.31515625 1.80054688 -2.3828125 1.21484375 C-1.20332031 0.61349609 -1.20332031 0.61349609 0 0 Z " fill="#E0E8DC" transform="translate(611,289)"/>
<path d="M0 0 C-1.44950455 3.7910119 -3.15172566 7.3874638 -5 11 C-5.33 10.01 -5.66 9.02 -6 8 C-6.66 8 -7.32 8 -8 8 C-8 5.69 -8 3.38 -8 1 C-2.25 0 -2.25 0 0 0 Z " fill="#EDEFEB" transform="translate(830,1064)"/>
<path d="M0 0 C0.99 0.33 1.98 0.66 3 1 C0.6163187 5.34170523 -1.78119883 9.2064129 -5 13 C-5.93007204 10.44230189 -6.28739184 8.70731153 -5.24609375 6.14453125 C-2.51555794 1.25777897 -2.51555794 1.25777897 0 0 Z " fill="#1B1D1B" transform="translate(897,250)"/>
<path d="M0 0 C3.63 0.33 7.26 0.66 11 1 C10.67 1.99 10.34 2.98 10 4 C7.33333333 3.33333333 4.66666667 2.66666667 2 2 C1.773125 2.556875 1.54625 3.11375 1.3125 3.6875 C-0.35896766 6.63246684 -2.55276352 8.68156544 -5 11 C-4.690625 10.236875 -4.38125 9.47375 -4.0625 8.6875 C-3.32106407 6.81210323 -2.63771783 4.91315348 -2 3 C-1.34 3 -0.68 3 0 3 C0 2.01 0 1.02 0 0 Z " fill="#C8CACA" transform="translate(905,240)"/>
<path d="M0 0 C1.32 0 2.64 0 4 0 C2.35433477 5.68502535 -0.29032784 10.76681636 -3 16 C-4 13 -4 13 -3.0625 10.8125 C-2.5365625 9.9153125 -2.5365625 9.9153125 -2 9 C-2.66 9 -3.32 9 -4 9 C-3.67 7.35 -3.34 5.7 -3 4 C-1.02 4.495 -1.02 4.495 1 5 C0.67 3.35 0.34 1.7 0 0 Z " fill="#323633" transform="translate(681,1171)"/>
<path d="M0 0 C0.66 0.33 1.32 0.66 2 1 C1.01 2.32 0.02 3.64 -1 5 C0.65 5 2.3 5 4 5 C3.67 5.99 3.34 6.98 3 8 C3.66 8 4.32 8 5 8 C5 10.31 5 12.62 5 15 C2.49962266 12.82575883 1.56371414 11.26954202 1 8 C0.34 8 -0.32 8 -1 8 C-1.66 5.69 -2.32 3.38 -3 1 C-2.01 0.67 -1.02 0.34 0 0 Z " fill="#E4E4E2" transform="translate(763,700)"/>
<path d="M0 0 C1.66611905 -0.042721 3.33382885 -0.04063832 5 0 C6.90998156 1.90998156 6 5.43889196 6 8 C6.33 8.66 6.66 9.32 7 10 C8.32 10 9.64 10 11 10 C11 10.66 11 11.32 11 12 C9.02 12 7.04 12 5 12 C4.35242375 10.56328432 3.70700547 9.12559584 3.0625 7.6875 C2.70285156 6.88699219 2.34320312 6.08648438 1.97265625 5.26171875 C1 3 1 3 0 0 Z " fill="#202321" transform="translate(801,889)"/>
<path d="M0 0 C0.33 1.32 0.66 2.64 1 4 C0.34 4 -0.32 4 -1 4 C-0.67 4.99 -0.34 5.98 0 7 C0.12781786 9.67394964 0.04391871 12.32095857 0 15 C-1.98 15.99 -3.96 16.98 -6 18 C-5.80664062 17.43152344 -5.61328125 16.86304688 -5.4140625 16.27734375 C-4.15958793 12.55739192 -2.92835489 8.84500166 -1.875 5.0625 C-1 2 -1 2 0 0 Z " fill="#2C2F27" transform="translate(772,264)"/>
<path d="M0 0 C0 2 0 2 -1.5 3.625 C-1.995 4.07875 -2.49 4.5325 -3 5 C-2.34 5.33 -1.68 5.66 -1 6 C-1 6.66 -1 7.32 -1 8 C-3.31 8.33 -5.62 8.66 -8 9 C-8.66 7.68 -9.32 6.36 -10 5 C-8.71186658 4.16121545 -7.41936744 3.32913217 -6.125 2.5 C-5.40570312 2.0359375 -4.68640625 1.571875 -3.9453125 1.09375 C-2 0 -2 0 0 0 Z " fill="#E4E4E0" transform="translate(922,770)"/>
<path d="M0 0 C4.13621084 3.3810038 7.81316569 6.66590534 11 11 C10.01 11.33 9.02 11.66 8 12 C8 11.34 8 10.68 8 10 C7.34 10 6.68 10 6 10 C5 9 4 8 3 7 C2.01 6.67 1.02 6.34 0 6 C-0.38218767 4.34385343 -0.71395102 2.67542976 -1 1 C-0.67 0.67 -0.34 0.34 0 0 Z " fill="#161414" transform="translate(838,382)"/>
<path d="M0 0 C-0.33 1.65 -0.66 3.3 -1 5 C-3.97 4.505 -3.97 4.505 -7 4 C-7.33 4.66 -7.66 5.32 -8 6 C-10.475 5.01 -10.475 5.01 -13 4 C-10.56272708 2.37515139 -8.62713877 1.34310925 -5.9375 0.3125 C-5.24527344 0.04050781 -4.55304687 -0.23148437 -3.83984375 -0.51171875 C-2 -1 -2 -1 0 0 Z " fill="#D9DCD8" transform="translate(685,258)"/>
<path d="M0 0 C2.64 0 5.28 0 8 0 C6.02 0.99 6.02 0.99 4 2 C5.32 2.33 6.64 2.66 8 3 C8.33 4.98 8.66 6.96 9 9 C5.05860922 7.33248852 2.2107188 4.77289351 -1 2 C-0.67 1.34 -0.34 0.68 0 0 Z " fill="#181C1A" transform="translate(750,411)"/>
<path d="M0 0 C2 3 2 3 2 5 C2.66 5 3.32 5 4 5 C4 5.66 4 6.32 4 7 C4.99 7.33 5.98 7.66 7 8 C6.67 8.66 6.34 9.32 6 10 C5.34 10 4.68 10 4 10 C4 9.34 4 8.68 4 8 C3.01 8 2.02 8 1 8 C0.34 8.66 -0.32 9.32 -1 10 C-1.66 9.34 -2.32 8.68 -3 8 C-2.625 5.375 -2.625 5.375 -2 3 C-1.34 3 -0.68 3 0 3 C0 2.01 0 1.02 0 0 Z " fill="#F2F3ED" transform="translate(830,362)"/>
<path d="M0 0 C1.98203709 0.61583656 3.9605772 1.24293834 5.9375 1.875 C7.59072266 2.39707031 7.59072266 2.39707031 9.27734375 2.9296875 C12 4 12 4 13 6 C10 8 10 8 7.8125 7.625 C7.214375 7.41875 6.61625 7.2125 6 7 C6.33 6.67 6.66 6.34 7 6 C4.69 5.01 2.38 4.02 0 3 C0 2.01 0 1.02 0 0 Z " fill="#E9EBE8" transform="translate(973,256)"/>
<path d="M0 0 C5.94 0 11.88 0 18 0 C17.34 1.32 16.68 2.64 16 4 C13.70704764 3.71861942 11.41564544 3.4245814 9.125 3.125 C7.84882812 2.96257812 6.57265625 2.80015625 5.2578125 2.6328125 C2 2 2 2 0 0 Z " fill="#1D1E25" transform="translate(921,242)"/>
<path d="M0 0 C1.98 0 3.96 0 6 0 C5.39301257 4.12751449 3.96189209 7.3321148 2 11 C1.34 10.67 0.68 10.34 0 10 C0 7.69 0 5.38 0 3 C0.66 2.67 1.32 2.34 2 2 C1.34 1.34 0.68 0.68 0 0 Z " fill="#CECEC8" transform="translate(775,238)"/>
<path d="M0 0 C1.32 0.66 2.64 1.32 4 2 C1.69 4.97 -0.62 7.94 -3 11 C-4.32 10.01 -5.64 9.02 -7 8 C-7 7.34 -7 6.68 -7 6 C-6.21625 5.7525 -5.4325 5.505 -4.625 5.25 C-1.67682892 3.84610901 -1.0975223 2.99324263 0 0 Z " fill="#E8EAE7" transform="translate(790,1121)"/>
<path d="M0 0 C0.66 0.33 1.32 0.66 2 1 C-0.475 5.455 -0.475 5.455 -3 10 C-3.99 9.67 -4.98 9.34 -6 9 C-6.125 6.625 -6.125 6.625 -6 4 C-5.34 3.34 -4.68 2.68 -4 2 C-2.68 2 -1.36 2 0 2 C0 1.34 0 0.68 0 0 Z " fill="#E2E6E0" transform="translate(815,1086)"/>
<path d="M0 0 C0.66 0.99 1.32 1.98 2 3 C1.125 6.1875 1.125 6.1875 0 9 C-1.65 9.33 -3.3 9.66 -5 10 C-5 6.60406522 -4.47834052 5.93380119 -2.5 3.3125 C-2.0359375 2.68988281 -1.571875 2.06726563 -1.09375 1.42578125 C-0.7328125 0.95527344 -0.371875 0.48476563 0 0 Z " fill="#D1D4D2" transform="translate(851,552)"/>
<path d="M0 0 C2.31 0.33 4.62 0.66 7 1 C8.25 7.625 8.25 7.625 6 11 C4.02 7.37 2.04 3.74 0 0 Z " fill="#111412" transform="translate(847,969)"/>
<path d="M0 0 C2.00993705 2.00993705 2.89940919 3.59211232 4.125 6.125 C4.47820313 6.84945312 4.83140625 7.57390625 5.1953125 8.3203125 C5.46085938 8.87460937 5.72640625 9.42890625 6 10 C3 11 3 11 0.8125 10.0625 C0.214375 9.711875 -0.38375 9.36125 -1 9 C-1.125 2.25 -1.125 2.25 0 0 Z " fill="#232523" transform="translate(838,842)"/>
<path d="M0 0 C0.66 0.33 1.32 0.66 2 1 C3.425 8.3625 3.425 8.3625 1 12 C0.32845067 10.71086513 -0.33708859 9.41859796 -1 8.125 C-1.37125 7.40570312 -1.7425 6.68640625 -2.125 5.9453125 C-3 4 -3 4 -3 2 C-2.01 2 -1.02 2 0 2 C0 1.34 0 0.68 0 0 Z " fill="#E7E8E4" transform="translate(802,769)"/>
<path d="M0 0 C1.25733598 3.77200794 1.03366148 6.25297715 0 10 C-1.98 10.33 -3.96 10.66 -6 11 C-4.54955729 6.89041233 -2.48889248 3.56741255 0 0 Z " fill="#EBECEB" transform="translate(468,422)"/>
<path d="M0 0 C-0.33 0.66 -0.66 1.32 -1 2 C-3.12563103 1.88623383 -5.2505261 1.75864369 -7.375 1.625 C-8.55835938 1.55539063 -9.74171875 1.48578125 -10.9609375 1.4140625 C-14 1 -14 1 -16 -1 C-10.50236935 -2.33275895 -4.96478604 -3.17746307 0 0 Z " fill="#DCDEDB" transform="translate(751,244)"/>
<path d="M0 0 C0.99 0.33 1.98 0.66 3 1 C3 2.65 3 4.3 3 6 C-2.2734375 9.22265625 -2.2734375 9.22265625 -4 10 C-4.66 9.67 -5.32 9.34 -6 9 C-4.02 6.03 -2.04 3.06 0 0 Z " fill="#1F211E" transform="translate(690,961)"/>
<path d="M0 0 C1.125 3.75 1.125 3.75 0 6 C-0.39227838 8.70872518 -0.74569498 11.40751693 -1.0625 14.125 C-1.15337891 14.87910156 -1.24425781 15.63320313 -1.33789062 16.41015625 C-1.56190852 18.27304188 -1.78138573 20.13647252 -2 22 C-2.33 22 -2.66 22 -3 22 C-3 17.38 -3 12.76 -3 8 C-3.66 8 -4.32 8 -5 8 C-4.1875 6.0625 -4.1875 6.0625 -3 4 C-2.01 3.67 -1.02 3.34 0 3 C0 2.01 0 1.02 0 0 Z " fill="#474C47" transform="translate(410,557)"/>
<path d="M0 0 C0.33 0.66 0.66 1.32 1 2 C1.99 2.33 2.98 2.66 4 3 C3.23883449 4.15227823 2.46567307 5.2966386 1.6875 6.4375 C1.25824219 7.07558594 0.82898438 7.71367187 0.38671875 8.37109375 C-1 10 -1 10 -4 11 C-2.95902388 7.13351728 -1.96301592 3.50538557 0 0 Z " fill="#E1E4E2" transform="translate(434,485)"/>
<path d="M0 0 C-1.875 1.0625 -1.875 1.0625 -4 2 C-4.66 1.67 -5.32 1.34 -6 1 C-6 1.66 -6 2.32 -6 3 C-6.639375 3.12375 -7.27875 3.2475 -7.9375 3.375 C-8.618125 3.58125 -9.29875 3.7875 -10 4 C-10.33 4.66 -10.66 5.32 -11 6 C-12.32 6 -13.64 6 -15 6 C-15 5.34 -15 4.68 -15 4 C-15.66 3.67 -16.32 3.34 -17 3 C-14.92085336 2.29994051 -12.83648414 1.61537756 -10.75 0.9375 C-9.58984375 0.55464844 -8.4296875 0.17179688 -7.234375 -0.22265625 C-4.19922915 -0.95211763 -2.84296787 -1.11889082 0 0 Z " fill="#D6DAD6" transform="translate(715,249)"/>
<path d="M0 0 C1.32 0 2.64 0 4 0 C3.34580901 5.06998019 1.1453591 9.41990777 -1 14 C-1.97608217 11.07175348 -2.08226668 9.04386724 -2 6 C-1.01 6 -0.02 6 1 6 C0.67 4.02 0.34 2.04 0 0 Z " fill="#383837" transform="translate(662,934)"/>
<path d="M0 0 C0.99 0.33 1.98 0.66 3 1 C3.33 3.31 3.66 5.62 4 8 C0.18315774 6.44499019 -2.19195732 3.96404505 -5 1 C-2.525 1.495 -2.525 1.495 0 2 C0 1.34 0 0.68 0 0 Z " fill="#1C1E1C" transform="translate(817,458)"/>
<path d="M0 0 C0.33 0.99 0.66 1.98 1 3 C1.66 3 2.32 3 3 3 C3.375 10.5 3.375 10.5 0 15 C0 10.05 0 5.1 0 0 Z " fill="#30322F" transform="translate(970,1096)"/>
<path d="M0 0 C0.66 0.33 1.32 0.66 2 1 C1.6875 2.875 1.6875 2.875 1 5 C-2.6441774 7.4294516 -4.71241272 7.16179575 -9 7 C-6.03716687 4.61327331 -3.05729491 2.2646629 0 0 Z " fill="#171B18" transform="translate(725,914)"/>
<path d="M0 0 C1.65 0 3.3 0 5 0 C5.33 2.31 5.66 4.62 6 7 C5.01 7.66 4.02 8.32 3 9 C0 3.375 0 3.375 0 0 Z " fill="#E7E9E6" transform="translate(767,914)"/>
<path d="M0 0 C0.66 0.33 1.32 0.66 2 1 C1.01 2.485 1.01 2.485 0 4 C0 4.66 0 5.32 0 6 C-4.1077065 7.58706842 -5.59232396 8.10191901 -10 7 C-6.7 4.69 -3.4 2.38 0 0 Z " fill="#DFE5DC" transform="translate(585,305)"/>
<path d="M0 0 C0.66 0.33 1.32 0.66 2 1 C-6.07744875 10.96355353 -6.07744875 10.96355353 -12 12 C-8.32167983 7.47384007 -4.58913637 3.60575001 0 0 Z " fill="#2B322A" transform="translate(761,1157)"/>
<path d="M0 0 C1.2077558 3.62326739 0.54311128 4.64146369 -1 8 C-2.66666667 8 -4.33333333 8 -6 8 C-6 6.02 -6 4.04 -6 2 C-4.7934375 1.7834375 -4.7934375 1.7834375 -3.5625 1.5625 C-1.07896294 1.25864751 -1.07896294 1.25864751 0 0 Z " fill="#E7E4E3" transform="translate(731,377)"/>
<path d="M0 0 C2.64733451 5.29466903 3.82660332 10.29976247 2.0625 16.0625 C1.711875 16.701875 1.36125 17.34125 1 18 C0.67 18 0.34 18 0 18 C0 12.06 0 6.12 0 0 Z " fill="#090E0D" transform="translate(1257,1023)"/>
<path d="M0 0 C2.475 0.495 2.475 0.495 5 1 C5 5.95 5 10.9 5 16 C4.67 16 4.34 16 4 16 C4 11.71 4 7.42 4 3 C2.68 3.99 1.36 4.98 0 6 C0 4.02 0 2.04 0 0 Z " fill="#DDDFD9" transform="translate(1006,710)"/>
<path d="M0 0 C4 2 4 2 6 4 C4.35830472 6.02054804 2.69088222 8.02043058 1 10 C0.67 10 0.34 10 0 10 C0 6.7 0 3.4 0 0 Z " fill="#141A15" transform="translate(650,1221)"/>
<path d="M0 0 C3.29078593 2.79716804 5.06305458 6.19528578 7 10 C6.67 10.66 6.34 11.32 6 12 C5.01 11.34 4.02 10.68 3 10 C3 8.68 3 7.36 3 6 C1.68 6 0.36 6 -1 6 C-0.67 4.02 -0.34 2.04 0 0 Z " fill="#363636" transform="translate(864,889)"/>
<path d="M0 0 C3.72245768 5.58368652 5.53020564 12.28406188 5 19 C4.01 19 3.02 19 2 19 C2.03480469 18.12988281 2.03480469 18.12988281 2.0703125 17.2421875 C2.18365588 12.33603836 1.72987488 8.64903873 0 4 C0 2.68 0 1.36 0 0 Z " fill="#99A099" transform="translate(1240,527)"/>
<path d="M0 0 C2.3828125 0.2421875 2.3828125 0.2421875 5.125 0.875 C6.03507813 1.07867187 6.94515625 1.28234375 7.8828125 1.4921875 C8.58148437 1.65976562 9.28015625 1.82734375 10 2 C10.33 2.99 10.66 3.98 11 5 C8.44855176 5.93045933 7.25993522 6.08564091 4.640625 5.22265625 C3.85171875 4.83980469 3.0628125 4.45695312 2.25 4.0625 C1.45078125 3.68222656 0.6515625 3.30195313 -0.171875 2.91015625 C-0.77515625 2.60980469 -1.3784375 2.30945313 -2 2 C-1.34 1.34 -0.68 0.68 0 0 Z " fill="#191921" transform="translate(1004,265)"/>
<path d="M0 0 C-0.75 1.9375 -0.75 1.9375 -2 4 C-3.8125 4.6875 -3.8125 4.6875 -6 5 C-6.86625 5.226875 -7.7325 5.45375 -8.625 5.6875 C-9.800625 5.8421875 -9.800625 5.8421875 -11 6 C-11.66 5.34 -12.32 4.68 -13 4 C-11.2097939 3.32942113 -9.41778511 2.6636531 -7.625 2 C-6.62726563 1.62875 -5.62953125 1.2575 -4.6015625 0.875 C-2 0 -2 0 0 0 Z " fill="#1C231B" transform="translate(1218,1277)"/>
<path d="M0 0 C2.31 0 4.62 0 7 0 C6.814375 0.61875 6.62875 1.2375 6.4375 1.875 C5.76313824 4.04160178 5.76313824 4.04160178 7 6 C6.34 6.66 5.68 7.32 5 8 C4.16382818 6.8562364 3.33113541 5.70992861 2.5 4.5625 C2.0359375 3.92441406 1.571875 3.28632812 1.09375 2.62890625 C0 1 0 1 0 0 Z " fill="#EBEDE8" transform="translate(413,1250)"/>
<path d="M0 0 C0.82638376 2.89234315 1 4.88742431 1 8 C-0.32 8 -1.64 8 -3 8 C-3 8.99 -3 9.98 -3 11 C-4.32 11.33 -5.64 11.66 -7 12 C-4.70965533 7.97215247 -2.40174242 3.96287499 0 0 Z " fill="#D5DBD4" transform="translate(660,1217)"/>
<path d="M0 0 C2 3 2 3 2 5 C1.01 5.495 1.01 5.495 0 6 C0 6.99 0 7.98 0 9 C-1.65 9 -3.3 9 -5 9 C-3.7508258 5.54074837 -2.32472205 2.85306797 0 0 Z " fill="#222721" transform="translate(805,1106)"/>
<path d="M0 0 C0.99 0 1.98 0 3 0 C2.01 3.96 1.02 7.92 0 12 C-2 10 -2 10 -2.125 6.375 C-2.08375 5.26125 -2.0425 4.1475 -2 3 C-1.01 3 -0.02 3 1 3 C0.67 2.01 0.34 1.02 0 0 Z " fill="#2A2D2B" transform="translate(747,1077)"/>
<path d="M0 0 C1.32 0.66 2.64 1.32 4 2 C3.34 3.98 2.68 5.96 2 8 C0.68 7.67 -0.64 7.34 -2 7 C-1.125 2.25 -1.125 2.25 0 0 Z " fill="#DADEDA" transform="translate(769,985)"/>
<path d="M0 0 C0.33 0 0.66 0 1 0 C1 2.97 1 5.94 1 9 C0.01 9.33 -0.98 9.66 -2 10 C-3.20882096 12.00016466 -3.20882096 12.00016466 -4 14 C-4 10.62534314 -3.18506921 8.46034008 -2 5.3125 C-1.62875 4.31863281 -1.2575 3.32476563 -0.875 2.30078125 C-0.58625 1.54152344 -0.2975 0.78226563 0 0 Z " fill="#212420" transform="translate(789,570)"/>
<path d="M0 0 C0.66 0.33 1.32 0.66 2 1 C1.01 2.98 0.02 4.96 -1 7 C-1.99 6.67 -2.98 6.34 -4 6 C-3.67 5.34 -3.34 4.68 -3 4 C-4.65 4.66 -6.3 5.32 -8 6 C-5.54080489 3.3651481 -3.42227589 1.25483449 0 0 Z " fill="#E0E4DA" transform="translate(599,296)"/>
<path d="M0 0 C0 0.66 0 1.32 0 2 C-0.99 2.33 -1.98 2.66 -3 3 C-2.67 3.66 -2.34 4.32 -2 5 C-4.31 5.33 -6.62 5.66 -9 6 C-9 5.34 -9 4.68 -9 4 C-9.66 3.34 -10.32 2.68 -11 2 C-9.5422647 1.664061 -8.08378894 1.33133376 -6.625 1 C-5.40683594 0.7215625 -5.40683594 0.7215625 -4.1640625 0.4375 C-2 0 -2 0 0 0 Z " fill="#0E110D" transform="translate(1204,1282)"/>
<path d="M0 0 C3.625 0.375 3.625 0.375 7 1 C6.67 2.32 6.34 3.64 6 5 C0.25 4.25 0.25 4.25 -2 2 C-1.34 1.34 -0.68 0.68 0 0 Z " fill="#E2E3DF" transform="translate(891,1093)"/>
<path d="M0 0 C1.485 0.99 1.485 0.99 3 2 C3.58667941 7.28011468 3.29237246 8.61017006 0 13 C0 8.71 0 4.42 0 0 Z " fill="#070F0A" transform="translate(1257,969)"/>
<path d="M0 0 C0.33 0.66 0.66 1.32 1 2 C1.66 2 2.32 2 3 2 C3 2.99 3 3.98 3 5 C2.34 5 1.68 5 1 5 C1 5.66 1 6.32 1 7 C0.01 7 -0.98 7 -2 7 C-2.33 7.99 -2.66 8.98 -3 10 C-3.66 10 -4.32 10 -5 10 C-3.66511872 6.40608886 -2.03977277 3.24509304 0 0 Z " fill="#262625" transform="translate(698,947)"/>
<path d="M0 0 C3.32643967 2.98232523 5.29152862 5.86370087 7 10 C6.67 10.66 6.34 11.32 6 12 C5.01 11.34 4.02 10.68 3 10 C3.33 9.01 3.66 8.02 4 7 C2.68 6.67 1.36 6.34 0 6 C0 4.02 0 2.04 0 0 Z " fill="#3C3C3C" transform="translate(854,871)"/>
<path d="M0 0 C0.66 0 1.32 0 2 0 C2.36923077 5.53846154 2.36923077 5.53846154 0.5 7.875 C-0.2425 8.431875 -0.2425 8.431875 -1 9 C-1.66 7.02 -2.32 5.04 -3 3 C-2.34 3 -1.68 3 -1 3 C-0.67 2.01 -0.34 1.02 0 0 Z " fill="#121513" transform="translate(789,859)"/>
<path d="M0 0 C-1.49010989 4.71868132 -1.49010989 4.71868132 -3.8125 6 C-4.8953125 6.495 -4.8953125 6.495 -6 7 C-7.70496537 8.62746694 -9.37897032 10.28891311 -11 12 C-11.66 11.67 -12.32 11.34 -13 11 C-11.21427748 9.16052663 -9.42197551 7.32842259 -7.625 5.5 C-7.11710938 4.97535156 -6.60921875 4.45070313 -6.0859375 3.91015625 C-2.2265625 0 -2.2265625 0 0 0 Z " fill="#2C2D2A" transform="translate(959,791)"/>
<path d="M0 0 C4 0 4 0 7 2 C5.35 3.65 3.7 5.3 2 7 C0 5 0 5 -0.125 2.375 C-0.08375 1.59125 -0.0425 0.8075 0 0 Z " fill="#E7E7E4" transform="translate(967,773)"/>
<path d="M0 0 C0.66 0.66 1.32 1.32 2 2 C0.02677065 6.56958375 -1.92236229 9.13463296 -6 12 C-4.68139111 7.38486888 -2.78644563 3.90102388 0 0 Z " fill="#2E2E2D" transform="translate(987,751)"/>
<path d="M0 0 C0.66 0 1.32 0 2 0 C2 3.3 2 6.6 2 10 C1.34 10 0.68 10 0 10 C0 8.35 0 6.7 0 5 C-0.99 5.33 -1.98 5.66 -3 6 C-1.125 1.125 -1.125 1.125 0 0 Z " fill="#1B1D1A" transform="translate(1007,715)"/>
<path d="M0 0 C0.33 0.66 0.66 1.32 1 2 C0.22265625 4.1640625 0.22265625 4.1640625 -0.9375 6.625 C-1.31777344 7.44226563 -1.69804688 8.25953125 -2.08984375 9.1015625 C-2.39019531 9.72804688 -2.69054687 10.35453125 -3 11 C-3.33 10.34 -3.66 9.68 -4 9 C-4.66 9 -5.32 9 -6 9 C-6 7.02 -6 5.04 -6 3 C-5.67 3.66 -5.34 4.32 -5 5 C-1.88667752 4.33131686 -1.88667752 4.33131686 -0.8125 1.9375 C-0.544375 1.298125 -0.27625 0.65875 0 0 Z " fill="#C5C6C6" transform="translate(794,556)"/>
<path d="M0 0 C1.32 1.32 2.64 2.64 4 4 C3.67 4.99 3.34 5.98 3 7 C1.35 7.33 -0.3 7.66 -2 8 C-2 6.35 -2 4.7 -2 3 C-1.34 2.67 -0.68 2.34 0 2 C0 1.34 0 0.68 0 0 Z " fill="#DDE1DC" transform="translate(1176,401)"/>
<path d="M0 0 C0.66 0.66 1.32 1.32 2 2 C1.67 2.99 1.34 3.98 1 5 C-0.33076989 5.34342449 -1.66431979 5.67619874 -3 6 C-3.99 7.485 -3.99 7.485 -5 9 C-5.99 8.67 -6.98 8.34 -8 8 C-5.33333333 5.33333333 -2.66666667 2.66666667 0 0 Z " fill="#F0F6EB" transform="translate(549,333)"/>
<path d="M0 0 C4.95 0 9.9 0 15 0 C15 0.33 15 0.66 15 1 C13.02 1 11.04 1 9 1 C9.33 1.99 9.66 2.98 10 4 C6.20696275 2.99806563 3.28463659 2.18975773 0 0 Z " fill="#212127" transform="translate(982,259)"/>
<path d="M0 0 C0 0.33 0 0.66 0 1 C-3.96 1.66 -7.92 2.32 -12 3 C-12 2.01 -12 1.02 -12 0 C-7.74433453 -1.16063604 -4.3164922 -0.76173392 0 0 Z " fill="#141617" transform="translate(735,243)"/>
<path d="M0 0 C1.32 0.33 2.64 0.66 4 1 C1.69 3.97 -0.62 6.94 -3 10 C-3.66 9.34 -4.32 8.68 -5 8 C-4.34 6.68 -3.68 5.36 -3 4 C-2.34 4 -1.68 4 -1 4 C-0.67 2.68 -0.34 1.36 0 0 Z " fill="#DBE1DA" transform="translate(1243,1250)"/>
<path d="M0 0 C0.144375 0.598125 0.28875 1.19625 0.4375 1.8125 C0.8872439 3.56150404 1.42892341 5.28677023 2 7 C0.824375 7.12375 0.824375 7.12375 -0.375 7.25 C-3.14749104 7.72806339 -3.14749104 7.72806339 -4.3125 10.0625 C-4.6528125 11.0215625 -4.6528125 11.0215625 -5 12 C-5.33 11.34 -5.66 10.68 -6 10 C-5.65066406 9.52949219 -5.30132813 9.05898437 -4.94140625 8.57421875 C-4.48636719 7.95160156 -4.03132812 7.32898437 -3.5625 6.6875 C-2.88380859 5.76517578 -2.88380859 5.76517578 -2.19140625 4.82421875 C-0.82663692 2.90322899 -0.82663692 2.90322899 0 0 Z " fill="#D4D6D4" transform="translate(669,1202)"/>
<path d="M0 0 C0.33 0 0.66 0 1 0 C1.02725341 1.7290774 1.04650987 3.45828176 1.0625 5.1875 C1.07410156 6.15042969 1.08570313 7.11335938 1.09765625 8.10546875 C1.00486622 10.85576513 0.62111685 13.32479591 0 16 C-0.99 16.33 -1.98 16.66 -3 17 C-2.0787571 11.31900211 -1.03745006 5.66064984 0 0 Z " fill="#606260" transform="translate(960,1161)"/>
<path d="M0 0 C0.99 0.33 1.98 0.66 3 1 C3.29296875 6.95703125 3.29296875 6.95703125 3 9 C2.01 9.99 1.02 10.98 0 12 C0 8.04 0 4.08 0 0 Z " fill="#070D0B" transform="translate(1257,904)"/>
<path d="M0 0 C0.33 1.32 0.66 2.64 1 4 C0.01 4.33 -0.98 4.66 -2 5 C-2.73323796 7.01508358 -2.73323796 7.01508358 -3 9 C-4.65 9.33 -6.3 9.66 -8 10 C-7.59007812 9.52949219 -7.18015625 9.05898438 -6.7578125 8.57421875 C-6.21898437 7.95160156 -5.68015625 7.32898438 -5.125 6.6875 C-4.59132813 6.07261719 -4.05765625 5.45773437 -3.5078125 4.82421875 C-1.8359553 2.86501788 -1.8359553 2.86501788 0 0 Z " fill="#D0D2CF" transform="translate(713,866)"/>
<path d="M0 0 C1.65 1.65 3.3 3.3 5 5 C4.67 5.99 4.34 6.98 4 8 C1.9375 8.6875 1.9375 8.6875 0 9 C-1.125 2.25 -1.125 2.25 0 0 Z " fill="#171716" transform="translate(826,368)"/>
<path d="M0 0 C0.66 0 1.32 0 2 0 C2.125 2.875 2.125 2.875 2 6 C1.34 6.66 0.68 7.32 0 8 C-0.99 7.34 -1.98 6.68 -3 6 C-2.42655063 3.13275314 -2.1385485 2.1385485 0 0 Z " fill="#E8E9E6" transform="translate(760,288)"/>
<path d="M0 0 C1.32 0.66 2.64 1.32 4 2 C3.34 3.32 2.68 4.64 2 6 C0.35 5.67 -1.3 5.34 -3 5 C-3 4.01 -3 3.02 -3 2 C-2.01 1.34 -1.02 0.68 0 0 Z " fill="#EEF0EE" transform="translate(1020,275)"/>
<path d="M0 0 C0.66 0 1.32 0 2 0 C-2.61538462 9.61538462 -2.61538462 9.61538462 -6 13 C-5.67 10.69 -5.34 8.38 -5 6 C-4.34 6 -3.68 6 -3 6 C-2.67 4.68 -2.34 3.36 -2 2 C-1.34 2 -0.68 2 0 2 C0 1.34 0 0.68 0 0 Z " fill="#C1C7C4" transform="translate(690,1226)"/>
<path d="M0 0 C1.485 0.99 1.485 0.99 3 2 C2.88590407 3.45922693 2.75834456 4.91740598 2.625 6.375 C2.55539062 7.18710937 2.48578125 7.99921875 2.4140625 8.8359375 C2 11 2 11 0 13 C0 8.71 0 4.42 0 0 Z " fill="#0F0D0F" transform="translate(1257,729)"/>
<path d="M0 0 C1.5625 1.8125 1.5625 1.8125 3 4 C2.67 4.99 2.34 5.98 2 7 C1.01 6.67 0.02 6.34 -1 6 C-1.99 7.32 -2.98 8.64 -4 10 C-4.66 9.34 -5.32 8.68 -6 8 C-5.34 8 -4.68 8 -4 8 C-3.34 6.35 -2.68 4.7 -2 3 C-1.34 3 -0.68 3 0 3 C0 2.01 0 1.02 0 0 Z " fill="#D6D7D4" transform="translate(834,577)"/>
<path d="M0 0 C1.32 0 2.64 0 4 0 C2.62845496 2.95409701 1.01136276 5.44008376 -1 8 C-3 5 -3 5 -3 2 C-2.01 1.67 -1.02 1.34 0 1 C0 0.67 0 0.34 0 0 Z " fill="#1D201C" transform="translate(856,539)"/>
<path d="M0 0 C0.33 0 0.66 0 1 0 C1.06058594 0.62648438 1.12117187 1.25296875 1.18359375 1.8984375 C1.26738281 2.71570312 1.35117187 3.53296875 1.4375 4.375 C1.55931641 5.59316406 1.55931641 5.59316406 1.68359375 6.8359375 C1.89090114 9.04272805 1.89090114 9.04272805 3 11 C2.01 11.495 2.01 11.495 1 12 C0.67 12.99 0.34 13.98 0 15 C-1.32 14.67 -2.64 14.34 -4 14 C-3.51917969 13.62230469 -3.03835938 13.24460937 -2.54296875 12.85546875 C-0.46337042 10.35468595 -0.50158423 8.52693196 -0.3125 5.3125 C-0.24675781 4.31863281 -0.18101562 3.32476563 -0.11328125 2.30078125 C-0.07589844 1.54152344 -0.03851562 0.78226563 0 0 Z " fill="#383B3C" transform="translate(721,1268)"/>
<path d="M0 0 C1.98 1.65 3.96 3.3 6 5 C4.02 5.99 4.02 5.99 2 7 C0.35 5.68 -1.3 4.36 -3 3 C-2.01 2.67 -1.02 2.34 0 2 C0 1.34 0 0.68 0 0 Z " fill="#DCDBD6" transform="translate(1000,1264)"/>
<path d="M0 0 C1.2270792 3.97299071 0.40908275 6.10430064 -1 10 C-1 10.99 -1 11.98 -1 13 C-2.32 13.33 -3.64 13.66 -5 14 C-3.46527032 9.27775484 -1.76054874 4.64144669 0 0 Z " fill="#353A33" transform="translate(1253,1235)"/>
<path d="M0 0 C-3.465 2.97 -3.465 2.97 -7 6 C-7.66 5.67 -8.32 5.34 -9 5 C-8 2 -8 2 -5.625 0.25 C-3 -1 -3 -1 0 0 Z " fill="#E1E3E0" transform="translate(783,1137)"/>
<path d="M0 0 C0.33 0.99 0.66 1.98 1 3 C-0.109375 4.97265625 -0.109375 4.97265625 -1.75 7.0625 C-2.28109375 7.75472656 -2.8121875 8.44695312 -3.359375 9.16015625 C-5 11 -5 11 -8 13 C-6.40956621 7.91061189 -3.2553049 4.12543357 0 0 Z " fill="#B9BBBB" transform="translate(897,483)"/>
<path d="M0 0 C1 2 1 2 1 5 C-1.5 7.6875 -1.5 7.6875 -4 10 C-4.8125 8.375 -4.8125 8.375 -5 6 C-3.53181864 3.75390165 -1.84147142 1.97621323 0 0 Z " fill="#D7E0D8" transform="translate(488,394)"/>
<path d="M0 0 C1.32 0.33 2.64 0.66 4 1 C1.69 3.64 -0.62 6.28 -3 9 C-3.66 7.68 -4.32 6.36 -5 5 C-2.75 2.4375 -2.75 2.4375 0 0 Z " fill="#181E1D" transform="translate(506,369)"/>
<path d="M0 0 C0.99 0.33 1.98 0.66 3 1 C1.35 2.98 -0.3 4.96 -2 7 C-2.99 6.67 -3.98 6.34 -5 6 C-5 4.68 -5 3.36 -5 2 C-4.360625 1.855625 -3.72125 1.71125 -3.0625 1.5625 C-1.02454854 1.18992819 -1.02454854 1.18992819 0 0 Z " fill="#18201A" transform="translate(516,359)"/>
<path d="M0 0 C1.79133978 -0.05391993 3.58313899 -0.09275571 5.375 -0.125 C6.37273438 -0.14820313 7.37046875 -0.17140625 8.3984375 -0.1953125 C11 0 11 0 13 2 C9.98968256 2.93423645 9.13349732 3.04449911 6 2 C4.00038436 1.96079185 1.99950636 1.95556653 0 2 C0 1.34 0 0.68 0 0 Z " fill="#161D17" transform="translate(613,280)"/>
<path d="M0 0 C1.32 0.66 2.64 1.32 4 2 C3.01 2.495 3.01 2.495 2 3 C2 3.66 2 4.32 2 5 C0.02 5.99 -1.96 6.98 -4 8 C-2.87548273 5.0280615 -1.77706209 2.66559313 0 0 Z " fill="#242723" transform="translate(831,1063)"/>
<path d="M0 0 C0.99 0.33 1.98 0.66 3 1 C2.75 3.375 2.75 3.375 2 6 C-0.0625 7.3125 -0.0625 7.3125 -2 8 C-2.20086443 4.28400809 -2.1519437 3.22791555 0 0 Z " fill="#DADFD9" transform="translate(764,1039)"/>
<path d="M0 0 C2.97 0.495 2.97 0.495 6 1 C6.125 3.875 6.125 3.875 6 7 C5.34 7.66 4.68 8.32 4 9 C3.566875 7.88625 3.566875 7.88625 3.125 6.75 C2.17697356 4.43260203 1.15154089 2.22082885 0 0 Z " fill="#DADAD8" transform="translate(878,914)"/>
<path d="M0 0 C0.33 0.66 0.66 1.32 1 2 C0.0625 4.625 0.0625 4.625 -1 7 C-4 7 -4 7 -6 6 C-4.75453595 2.26360784 -3.36595047 1.81243487 0 0 Z " fill="#171A16" transform="translate(741,903)"/>
<path d="M0 0 C0.33 0.99 0.66 1.98 1 3 C0.01 3.8971875 0.01 3.8971875 -1 4.8125 C-3.3373846 6.87501834 -3.3373846 6.87501834 -3 10 C-4.32 10.33 -5.64 10.66 -7 11 C-6.40312566 7.65750371 -5.26396123 5.53563658 -3 3 C-2.34 3 -1.68 3 -1 3 C-0.67 2.01 -0.34 1.02 0 0 Z " fill="#CFD0CD" transform="translate(688,894)"/>
<path d="M0 0 C0.66 0 1.32 0 2 0 C2.66 1.65 3.32 3.3 4 5 C2.02 5.33 0.04 5.66 -2 6 C-2 3 -2 3 0 0 Z " fill="#232523" transform="translate(753,891)"/>
<path d="M0 0 C3 1 3 1 4 3 C0.04 4.98 0.04 4.98 -4 7 C-4 5.68 -4 4.36 -4 3 C-2.68 2.67 -1.36 2.34 0 2 C0 1.34 0 0.68 0 0 Z " fill="#0E100F" transform="translate(751,825)"/>
<path d="M0 0 C0.33 0.99 0.66 1.98 1 3 C-0.75 5.875 -0.75 5.875 -3 9 C-4.01059521 10.66026356 -5.01453001 12.32470102 -6 14 C-6.33 13.01 -6.66 12.02 -7 11 C-5.56640625 8.30078125 -5.56640625 8.30078125 -3.5625 5.3125 C-2.57443359 3.82169922 -2.57443359 3.82169922 -1.56640625 2.30078125 C-1.04949219 1.54152344 -0.53257812 0.78226562 0 0 Z " fill="#B7B9BB" transform="translate(450,453)"/>
<path d="M0 0 C1.32 0 2.64 0 4 0 C4.33 1.32 4.66 2.64 5 4 C4.01 4.33 3.02 4.66 2 5 C1.67 5.66 1.34 6.32 1 7 C0.01 5.68 -0.98 4.36 -2 3 C-1.01 3 -0.02 3 1 3 C0.67 2.01 0.34 1.02 0 0 Z " fill="#ECECEA" transform="translate(857,395)"/>
<path d="M0 0 C-2.59613267 2.13253755 -4.63067173 3.55075623 -8 4 C-8.66 3.67 -9.32 3.34 -10 3 C-10 2.34 -10 1.68 -10 1 C-3.375 -1.125 -3.375 -1.125 0 0 Z " fill="#191D1C" transform="translate(656,267)"/>
<path d="M0 0 C0.66 1.32 1.32 2.64 2 4 C0.35 5.98 -1.3 7.96 -3 10 C-3.66 9.34 -4.32 8.68 -5 8 C-3.38731308 5.28775382 -1.75098126 2.62647188 0 0 Z " fill="#DBDCD8" transform="translate(897,255)"/>
<path d="M0 0 C1.32 0.99 2.64 1.98 4 3 C3.01 3.33 2.02 3.66 1 4 C1 4.66 1 5.32 1 6 C0.01 6.33 -0.98 6.66 -2 7 C-2.66 6.01 -3.32 5.02 -4 4 C-2.68 2.68 -1.36 1.36 0 0 Z " fill="#111311" transform="translate(425,1266)"/>
<path d="M0 0 C2.31 0 4.62 0 7 0 C5.35 1.98 3.7 3.96 2 6 C1.34 5.34 0.68 4.68 0 4 C0 2.68 0 1.36 0 0 Z " fill="#E1E6DF" transform="translate(717,1192)"/>
<path d="M0 0 C2.97 1.98 2.97 1.98 6 4 C5.01 4.99 4.02 5.98 3 7 C0 2.25 0 2.25 0 0 Z M-4 2 C-2.68 2.33 -1.36 2.66 0 3 C-0.99 3.495 -0.99 3.495 -2 4 C-2.66 3.34 -3.32 2.68 -4 2 Z " fill="#F0F1F0" transform="translate(898,1019)"/>
<path d="M0 0 C0.99 0.33 1.98 0.66 3 1 C4.1875 3.5625 4.1875 3.5625 5 6 C3.68 6.33 2.36 6.66 1 7 C0.01 5.02 -0.98 3.04 -2 1 C-1.34 0.67 -0.68 0.34 0 0 Z " fill="#EAEBE9" transform="translate(865,885)"/>
<path d="M0 0 C2.15377564 2.62198774 3.40072174 4.64404172 4 8 C2.35 7.67 0.7 7.34 -1 7 C-1.33 5.68 -1.66 4.36 -2 3 C-1.34 3 -0.68 3 0 3 C0 2.01 0 1.02 0 0 Z " fill="#CFD6D2" transform="translate(1216,466)"/>
<path d="M0 0 C1.32 0.66 2.64 1.32 4 2 C3.01 3.32 2.02 4.64 1 6 C-1.46800047 4.84826645 -3.04783565 3.95216435 -5 2 C-3.35 2 -1.7 2 0 2 C0 1.34 0 0.68 0 0 Z " fill="#EBEDE8" transform="translate(756,419)"/>
<path d="M0 0 C0.33 0.99 0.66 1.98 1 3 C0.0479279 4.00596297 -0.91187346 5.00461563 -1.875 6 C-2.40867187 6.556875 -2.94234375 7.11375 -3.4921875 7.6875 C-5 9 -5 9 -7 9 C-5.44499019 5.18315774 -2.96404505 2.80804268 0 0 Z " fill="#CAD5CD" transform="translate(522,356)"/>
<path d="M0 0 C-2.98646769 1.99097846 -5.59687262 2.94124926 -9 4 C-9.33 3.01 -9.66 2.02 -10 1 C-6.21812119 -0.83691257 -4.05431692 -1.15837626 0 0 Z " fill="#151A1A" transform="translate(711,248)"/>
<path d="M0 0 C0 0.66 0 1.32 0 2 C-5.01907969 6.08529742 -5.01907969 6.08529742 -8.875 5.75 C-9.57625 5.5025 -10.2775 5.255 -11 5 C-10.4225 4.731875 -9.845 4.46375 -9.25 4.1875 C-6.94603902 3.05815166 -6.94603902 3.05815166 -4.9375 1.375 C-3 0 -3 0 0 0 Z " fill="#0D0E0D" transform="translate(1237,1267)"/>
<path d="M0 0 C0 1.32 0 2.64 0 4 C-4.455 3.01 -4.455 3.01 -9 2 C-3.42857143 -1.71428571 -3.42857143 -1.71428571 0 0 Z " fill="#292828" transform="translate(997,1257)"/>
<path d="M0 0 C-1.485 2.475 -1.485 2.475 -3 5 C-3.99 4.67 -4.98 4.34 -6 4 C-6 2.68 -6 1.36 -6 0 C-3 -1 -3 -1 0 0 Z " fill="#E7EBE4" transform="translate(811,1097)"/>
<path d="M0 0 C1.31611677 0.95336021 2.62778961 1.91285774 3.9375 2.875 C4.66839844 3.40867187 5.39929688 3.94234375 6.15234375 4.4921875 C8 6 8 6 9 8 C6.03824877 7.38722388 4.61941217 6.74627478 2 5 C2 4.34 2 3.68 2 3 C1.34 3 0.68 3 0 3 C0 2.01 0 1.02 0 0 Z " fill="#D9DCD9" transform="translate(906,1025)"/>
<path d="M0 0 C2.1723491 3.25852365 4.07119658 6.59244728 6 10 C5.01 10.495 5.01 10.495 4 11 C3.67 10.01 3.34 9.02 3 8 C0.99983534 6.79117904 0.99983534 6.79117904 -1 6 C-0.67 4.02 -0.34 2.04 0 0 Z " fill="#CCCDCA" transform="translate(775,844)"/>
<path d="M0 0 C2.64465038 3.1254959 3.84414715 6.08788267 5 10 C4.01 10.33 3.02 10.66 2 11 C0.80712589 7.12315913 0 4.08378077 0 0 Z " fill="#353634" transform="translate(830,827)"/>
<path d="M0 0 C0.99 0.33 1.98 0.66 3 1 C3.33 1.99 3.66 2.98 4 4 C3.34 4 2.68 4 2 4 C2 4.99 2 5.98 2 7 C1.34 7 0.68 7 0 7 C0 6.01 0 5.02 0 4 C-0.66 3.67 -1.32 3.34 -2 3 C-1.34 2.01 -0.68 1.02 0 0 Z " fill="#181A16" transform="translate(897,442)"/>
<path d="M0 0 C1.32 0.99 2.64 1.98 4 3 C2.02 4.32 0.04 5.64 -2 7 C-2.66 6.67 -3.32 6.34 -4 6 C-3.67 5.34 -3.34 4.68 -3 4 C-2.34 4 -1.68 4 -1 4 C-0.67 2.68 -0.34 1.36 0 0 Z " fill="#EDEEEB" transform="translate(745,410)"/>
<path d="M0 0 C0.33 0.66 0.66 1.32 1 2 C1.66 2.33 2.32 2.66 3 3 C2.01 3 1.02 3 0 3 C0.33 3.99 0.66 4.98 1 6 C0.0625 8.1875 0.0625 8.1875 -1 10 C-1.99 9.34 -2.98 8.68 -4 8 C-2.68 5.36 -1.36 2.72 0 0 Z " fill="#D7D9D2" transform="translate(880,281)"/>
<path d="M0 0 C0.99 0 1.98 0 3 0 C3 1.98 3 3.96 3 6 C1.68 5.34 0.36 4.68 -1 4 C-1 1 -1 1 0 0 Z " fill="#141515" transform="translate(1006,1265)"/>
<path d="M0 0 C2.64 0.33 5.28 0.66 8 1 C8 1.66 8 2.32 8 3 C7.34 3 6.68 3 6 3 C5.67 3.66 5.34 4.32 5 5 C3.02 4.01 1.04 3.02 -1 2 C-0.67 1.34 -0.34 0.68 0 0 Z " fill="#DBDEDB" transform="translate(863,1081)"/>
<path d="M0 0 C-1.07401108 2.91517292 -1.77810176 4.77810176 -4 7 C-4 6.01 -4 5.02 -4 4 C-4.66 4 -5.32 4 -6 4 C-6 3.34 -6 2.68 -6 2 C-3 0 -3 0 0 0 Z " fill="#E2E3DF" transform="translate(821,1079)"/>
<path d="M0 0 C0.66 0 1.32 0 2 0 C1.38461538 6.52307692 1.38461538 6.52307692 -0.5625 8.9375 C-1.036875 9.288125 -1.51125 9.63875 -2 10 C-2.33 8.35 -2.66 6.7 -3 5 C-2.01 4.34 -1.02 3.68 0 3 C0 2.01 0 1.02 0 0 Z " fill="#212521" transform="translate(854,318)"/>
<path d="M0 0 C0.33 2.31 0.66 4.62 1 7 C-0.98 5.68 -2.96 4.36 -5 3 C-2.25 0 -2.25 0 0 0 Z " fill="#181D1E" transform="translate(1095,313)"/>
<path d="M0 0 C-0.33 1.65 -0.66 3.3 -1 5 C-2.98 4.34 -4.96 3.68 -7 3 C-3.375 0 -3.375 0 0 0 Z " fill="#DEE3D8" transform="translate(647,272)"/>
<path d="M0 0 C0.99 0.33 1.98 0.66 3 1 C3 1.66 3 2.32 3 3 C1.35 3.33 -0.3 3.66 -2 4 C-1.34 2.68 -0.68 1.36 0 0 Z M-4 3 C-3.34 3.66 -2.68 4.32 -2 5 C-3.65 5.66 -5.3 6.32 -7 7 C-6.01 5.68 -5.02 4.36 -4 3 Z " fill="#EDEDE9" transform="translate(896,261)"/>
<path d="M0 0 C-0.33 0.66 -0.66 1.32 -1 2 C-3.97 2 -6.94 2 -10 2 C-9 0 -9 0 -7.25 -0.6875 C-4.60760177 -1.05449975 -2.57327078 -0.64331769 0 0 Z " fill="#080C0D" transform="translate(464,1288)"/>
<path d="M0 0 C3.9492568 0.55105909 7.34920174 1.38935371 11 3 C11 3.33 11 3.66 11 4 C6.78121808 4.19622241 3.82989106 3.80230168 0 2 C0 1.34 0 0.68 0 0 Z " fill="#171B15" transform="translate(448,1280)"/>
<path d="M0 0 C0.66 0 1.32 0 2 0 C0.25 7.625 0.25 7.625 -2 11 C-2.33 9.35 -2.66 7.7 -3 6 C-2.34 6 -1.68 6 -1 6 C-0.67 4.02 -0.34 2.04 0 0 Z " fill="#4B4E4B" transform="translate(744,1091)"/>
<path d="M0 0 C1.485 0.99 1.485 0.99 3 2 C2.5020163 5.73487777 2.12508244 7.81237635 0 11 C0 7.37 0 3.74 0 0 Z " fill="#080D0B" transform="translate(1257,1001)"/>
<path d="M0 0 C0.33 0 0.66 0 1 0 C1.36923077 6.52307692 1.36923077 6.52307692 -0.5 8.9375 C-0.995 9.288125 -1.49 9.63875 -2 10 C-2.25 3.375 -2.25 3.375 0 0 Z " fill="#070C0B" transform="translate(1259,919)"/>
<path d="M0 0 C0.66 0.33 1.32 0.66 2 1 C0.3125 4 0.3125 4 -2 7 C-4.75 7.375 -4.75 7.375 -7 7 C-4.66666667 4.66666667 -2.33333333 2.33333333 0 0 Z " fill="#242422" transform="translate(917,827)"/>
<path d="M0 0 C0.99 0 1.98 0 3 0 C2.88637738 1.4800841 2.75877092 2.95910074 2.625 4.4375 C2.52058594 5.67306641 2.52058594 5.67306641 2.4140625 6.93359375 C2.27742188 7.61550781 2.14078125 8.29742188 2 9 C1.01 9.495 1.01 9.495 0 10 C0 6.7 0 3.4 0 0 Z " fill="#0F0C10" transform="translate(1257,745)"/>
<path d="M0 0 C0.33 0.99 0.66 1.98 1 3 C-0.21484375 4.82421875 -0.21484375 4.82421875 -1.9375 6.6875 C-2.50339844 7.31011719 -3.06929687 7.93273437 -3.65234375 8.57421875 C-4.09707031 9.04472656 -4.54179688 9.51523437 -5 10 C-5.66 9.67 -6.32 9.34 -7 9 C-4.69 6.03 -2.38 3.06 0 0 Z " fill="#BFC0BD" transform="translate(952,741)"/>
<path d="M0 0 C0.99 0 1.98 0 3 0 C3 1.32 3 2.64 3 4 C3.66 4 4.32 4 5 4 C5 4.66 5 5.32 5 6 C3.02 6.99 3.02 6.99 1 8 C0.67 7.01 0.34 6.02 0 5 C0.33 4.34 0.66 3.68 1 3 C0.67 2.01 0.34 1.02 0 0 Z " fill="#ECEDE9" transform="translate(785,742)"/>
<path d="M0 0 C1.95582488 2.93373731 3.56224304 5.78216298 5 9 C4.67 9.66 4.34 10.32 4 11 C3.01 10.67 2.02 10.34 1 10 C0.67 6.7 0.34 3.4 0 0 Z " fill="#B0AFAE" transform="translate(832,721)"/>
<path d="M0 0 C0.33 0.99 0.66 1.98 1 3 C1.99 3.33 2.98 3.66 4 4 C4 4.66 4 5.32 4 6 C3.34 6 2.68 6 2 6 C1.67 6.66 1.34 7.32 1 8 C0.34 7.34 -0.32 6.68 -1 6 C-0.625 2.875 -0.625 2.875 0 0 Z " fill="#232827" transform="translate(727,390)"/>
<path d="M0 0 C0.66 1.32 1.32 2.64 2 4 C-2.75 7.875 -2.75 7.875 -5 9 C-4.1875 6.0625 -4.1875 6.0625 -3 3 C-2.01 2.67 -1.02 2.34 0 2 C0 1.34 0 0.68 0 0 Z " fill="#CDCDCC" transform="translate(865,307)"/>
<path d="M0 0 C2.01822917 0.06510417 4.03645833 0.13020833 6.0546875 0.1953125 C5.3946875 1.5153125 4.7346875 2.8353125 4.0546875 4.1953125 C1.4146875 3.5353125 -1.2253125 2.8753125 -3.9453125 2.1953125 C-1.9453125 0.1953125 -1.9453125 0.1953125 0 0 Z " fill="#1B1E20" transform="translate(958.9453125,248.8046875)"/>
<path d="M0 0 C0.66 0.33 1.32 0.66 2 1 C0.92598892 3.91517292 0.22189824 5.77810176 -2 8 C-2 7.34 -2 6.68 -2 6 C-2.66 5.67 -3.32 5.34 -4 5 C-3.34 5 -2.68 5 -2 5 C-1.34 3.35 -0.68 1.7 0 0 Z " fill="#151B15" transform="translate(658,1216)"/>
<path d="M0 0 C0.33 0.99 0.66 1.98 1 3 C0.34 3 -0.32 3 -1 3 C-1 3.66 -1 4.32 -1 5 C-1.66 5 -2.32 5 -3 5 C-3.33 5.66 -3.66 6.32 -4 7 C-4.66 6.34 -5.32 5.68 -6 5 C-4.02 3.35 -2.04 1.7 0 0 Z " fill="#1C211C" transform="translate(736,1181)"/>
<path d="M0 0 C1.32 0.66 2.64 1.32 4 2 C1.69 3.32 -0.62 4.64 -3 6 C-3 5.01 -3 4.02 -3 3 C-2.34 3 -1.68 3 -1 3 C-0.67 2.01 -0.34 1.02 0 0 Z " fill="#1B1F1D" transform="translate(719,1129)"/>
<path d="M0 0 C1.61949011 2.57213134 2.04408751 3.67669159 1.625 6.75 C1.41875 7.4925 1.2125 8.235 1 9 C0.01 9.33 -0.98 9.66 -2 10 C-1.54177532 6.53058454 -1.10868317 3.32604951 0 0 Z " fill="#C3C5C3" transform="translate(757,1055)"/>
<path d="M0 0 C1.32 0 2.64 0 4 0 C4 1.98 4 3.96 4 6 C3.01 6 2.02 6 1 6 C0.67 4.02 0.34 2.04 0 0 Z " fill="#E8E8E7" transform="translate(894,941)"/>
<path d="M0 0 C4 4.625 4 4.625 4 8 C2.68 7.67 1.36 7.34 0 7 C-1.125 2.25 -1.125 2.25 0 0 Z " fill="#303030" transform="translate(888,933)"/>
<path d="M0 0 C0.66 0 1.32 0 2 0 C2.33 0.99 2.66 1.98 3 3 C1.5625 5.6875 1.5625 5.6875 0 8 C-0.66 7.01 -1.32 6.02 -2 5 C-1.125 2.3125 -1.125 2.3125 0 0 Z " fill="#121413" transform="translate(820,914)"/>
<path d="M0 0 C2.125 0.375 2.125 0.375 4 1 C2.35 2.65 0.7 4.3 -1 6 C-1.625 4.125 -1.625 4.125 -2 2 C-1.34 1.34 -0.68 0.68 0 0 Z " fill="#1D221F" transform="translate(701,875)"/>
<path d="M0 0 C0.99 0 1.98 0 3 0 C3 0.99 3 1.98 3 3 C4.32 3.33 5.64 3.66 7 4 C5.68 4.99 4.36 5.98 3 7 C2.01 4.69 1.02 2.38 0 0 Z " fill="#EAECE8" transform="translate(810,791)"/>
<path d="M0 0 C0.33 0 0.66 0 1 0 C1 3.3 1 6.6 1 10 C0.34 10 -0.32 10 -1 10 C-2.23076923 4.58461538 -2.23076923 4.58461538 -1.0625 1.625 C-0.5365625 0.820625 -0.5365625 0.820625 0 0 Z " fill="#D4D3D0" transform="translate(839,730)"/>
<path d="M0 0 C0.99 0.66 1.98 1.32 3 2 C2.01 3.98 1.02 5.96 0 8 C-0.66 7.01 -1.32 6.02 -2 5 C-1.125 2.3125 -1.125 2.3125 0 0 Z " fill="#CCCDCB" transform="translate(997,727)"/>
<path d="M0 0 C0.33 0 0.66 0 1 0 C1 1.65 1 3.3 1 5 C-1.31 5.66 -3.62 6.32 -6 7 C-5.02433888 5.83040013 -4.044375 4.66438823 -3.0625 3.5 C-2.51722656 2.8503125 -1.97195313 2.200625 -1.41015625 1.53125 C-0.71212891 0.77328125 -0.71212891 0.77328125 0 0 Z " fill="#D0D3CE" transform="translate(983,708)"/>
<path d="M0 0 C0.33 0.66 0.66 1.32 1 2 C1.99 1.67 2.98 1.34 4 1 C3.34 3.31 2.68 5.62 2 8 C1.67 7.34 1.34 6.68 1 6 C0.34 5.67 -0.32 5.34 -1 5 C-0.67 3.35 -0.34 1.7 0 0 Z " fill="#D5D5D5" transform="translate(797,540)"/>
<path d="M0 0 C-1.29299694 2.88437779 -2.65941363 4.87219421 -5 7 C-5.6875 5.1875 -5.6875 5.1875 -6 3 C-4.04862098 0.26806937 -3.44686768 0 0 0 Z " fill="#171B20" transform="translate(490,391)"/>
<path d="M0 0 C0.66 0 1.32 0 2 0 C2 1.32 2 2.64 2 4 C0.02 4.99 -1.96 5.98 -4 7 C-2.92598892 4.08482708 -2.22189824 2.22189824 0 0 Z " fill="#181D15" transform="translate(770,275)"/>
<path d="M0 0 C5.53846154 0.61538462 5.53846154 0.61538462 7.875 2.5625 C8.431875 3.2740625 8.431875 3.2740625 9 4 C6.36 3.67 3.72 3.34 1 3 C0.67 2.01 0.34 1.02 0 0 Z " fill="#DFE3E4" transform="translate(999,266)"/>
<path d="M0 0 C2 3.75 2 3.75 2 6 C1.34 6 0.68 6 0 6 C-0.33 8.31 -0.66 10.62 -1 13 C-2.12758089 9.61725734 -1.81750262 8.23221777 -1.0625 4.8125 C-0.86785156 3.91144531 -0.67320312 3.01039062 -0.47265625 2.08203125 C-0.23869141 1.05142578 -0.23869141 1.05142578 0 0 Z " fill="#C6C3C2" transform="translate(916,1234)"/>
<path d="M0 0 C0.99 1.32 1.98 2.64 3 4 C2.67 4.66 2.34 5.32 2 6 C-0.5625 6.625 -0.5625 6.625 -3 7 C-1.125 2.25 -1.125 2.25 0 0 Z " fill="#DADBD9" transform="translate(736,1116)"/>
<path d="M0 0 C0.66 0.99 1.32 1.98 2 3 C0.625 6.6875 0.625 6.6875 -1 10 C-1.66 9.01 -2.32 8.02 -3 7 C-1.625 3.3125 -1.625 3.3125 0 0 Z " fill="#DCDDDD" transform="translate(699,939)"/>
<path d="M0 0 C3 3.75 3 3.75 3 6 C1.68 5.67 0.36 5.34 -1 5 C-1.33 6.32 -1.66 7.64 -2 9 C-2.33 8.01 -2.66 7.02 -3 6 C-2.67 5.34 -2.34 4.68 -2 4 C-1.34 4 -0.68 4 0 4 C0 2.68 0 1.36 0 0 Z " fill="#AFAFAD" transform="translate(675,912)"/>
<path d="M0 0 C0.66 0 1.32 0 2 0 C2 1.98 2 3.96 2 6 C1.01 6.495 1.01 6.495 0 7 C-0.66 5.35 -1.32 3.7 -2 2 C-1.34 2 -0.68 2 0 2 C0 1.34 0 0.68 0 0 Z " fill="#E2E4DD" transform="translate(851,858)"/>
<path d="M0 0 C2.97 0.495 2.97 0.495 6 1 C4.68 2.32 3.36 3.64 2 5 C1.01 4.34 0.02 3.68 -1 3 C-0.67 2.01 -0.34 1.02 0 0 Z " fill="#EEEFEA" transform="translate(950,791)"/>
<path d="M0 0 C0.33 0.66 0.66 1.32 1 2 C1.66 2 2.32 2 3 2 C2 4 2 4 -1.0625 5.125 C-2.031875 5.41375 -3.00125 5.7025 -4 6 C-1.125 1.125 -1.125 1.125 0 0 Z " fill="#DEDEDC" transform="translate(960,732)"/>
<path d="M0 0 C0.99 0.33 1.98 0.66 3 1 C3.33 1.99 3.66 2.98 4 4 C2.35 4.33 0.7 4.66 -1 5 C-1.66 4.01 -2.32 3.02 -3 2 C-2.01 2 -1.02 2 0 2 C0 1.34 0 0.68 0 0 Z " fill="#EEF2E9" transform="translate(913,452)"/>
<path d="M0 0 C0.33 0.99 0.66 1.98 1 3 C1.99 3.33 2.98 3.66 4 4 C3.236875 4.268125 2.47375 4.53625 1.6875 4.8125 C-0.87380884 5.94424112 -2.19692938 6.91223401 -4 9 C-3.35455571 5.51460083 -1.89865603 2.97180943 0 0 Z " fill="#B3B5B7" transform="translate(456,440)"/>
<path d="M0 0 C1.98 1.65 3.96 3.3 6 5 C5.01 5.66 4.02 6.32 3 7 C2.34 6.67 1.68 6.34 1 6 C0.375 2.9375 0.375 2.9375 0 0 Z " fill="#363634" transform="translate(871,415)"/>
<path d="M0 0 C2 3 2 3 2 5 C1.34 5 0.68 5 0 5 C-0.33 6.32 -0.66 7.64 -1 9 C-1.66 8.67 -2.32 8.34 -3 8 C-2.67 6.35 -2.34 4.7 -2 3 C-1.34 3 -0.68 3 0 3 C0 2.01 0 1.02 0 0 Z " fill="#C7C8C6" transform="translate(830,362)"/>
<path d="M0 0 C0.99 0.66 1.98 1.32 3 2 C1.35 3.98 -0.3 5.96 -2 8 C-3.125 4.25 -3.125 4.25 -2 2 C-1.34 2 -0.68 2 0 2 C0 1.34 0 0.68 0 0 Z " fill="#161E19" transform="translate(529,345)"/>
<path d="M0 0 C1.2380014 3.57644848 0.74926071 6.33694766 0 10 C-1.32 9.67 -2.64 9.34 -4 9 C-4 8.34 -4 7.68 -4 7 C-3.34 7 -2.68 7 -2 7 C-1.34 4.69 -0.68 2.38 0 0 Z " fill="#D0D2D0" transform="translate(845,337)"/>
<path d="M0 0 C2.00720923 0.28674418 4.0085944 0.61866701 6 1 C5.34 2.32 4.68 3.64 4 5 C2.35 3.68 0.7 2.36 -1 1 C-0.67 0.67 -0.34 0.34 0 0 Z " fill="#1A1B21" transform="translate(1055,291)"/>
<path d="M0 0 C0 1.32 0 2.64 0 4 C-2.31 3.67 -4.62 3.34 -7 3 C-3.375 0 -3.375 0 0 0 Z " fill="#DDE1DB" transform="translate(663,265)"/>
<path d="M0 0 C0.99 0.33 1.98 0.66 3 1 C0.03 3.475 0.03 3.475 -3 6 C-3.66 5.34 -4.32 4.68 -5 4 C-2.6875 1.9375 -2.6875 1.9375 0 0 Z " fill="#D2D8D0" transform="translate(764,1152)"/>
<path d="M0 0 C0.99 0.33 1.98 0.66 3 1 C1.68 2.65 0.36 4.3 -1 6 C-1.66 5.67 -2.32 5.34 -3 5 C-3 4.01 -3 3.02 -3 2 C-2.01 1.34 -1.02 0.68 0 0 Z " fill="#E5E9E2" transform="translate(802,1106)"/>
<path d="M0 0 C0.66 0 1.32 0 2 0 C1.67 2.31 1.34 4.62 1 7 C0.34 7 -0.32 7 -1 7 C-1.04254356 5.00045254 -1.04080783 2.99958364 -1 1 C-0.67 0.67 -0.34 0.34 0 0 Z " fill="#080A06" transform="translate(742,1090)"/>
<path d="M0 0 C0.99 0.33 1.98 0.66 3 1 C2.01 2.98 1.02 4.96 0 7 C-0.33 6.01 -0.66 5.02 -1 4 C-1.66 4 -2.32 4 -3 4 C-3 3.34 -3 2.68 -3 2 C-2.01 1.34 -1.02 0.68 0 0 Z " fill="#D8DAD7" transform="translate(825,1068)"/>
<path d="M0 0 C0.66 0 1.32 0 2 0 C1.40072174 3.35595828 0.15377564 5.37801226 -2 8 C-2 6.02 -2 4.04 -2 2 C-1.34 2 -0.68 2 0 2 C0 1.34 0 0.68 0 0 Z " fill="#474847" transform="translate(658,949)"/>
<path d="M0 0 C0.66 0 1.32 0 2 0 C2.75 1.75 2.75 1.75 3 4 C1.0625 6.25 1.0625 6.25 -1 8 C-1.33 7.34 -1.66 6.68 -2 6 C-1.34 6 -0.68 6 0 6 C0 4.02 0 2.04 0 0 Z " fill="#D6D6D5" transform="translate(986,746)"/>
<path d="M0 0 C0.99 1.32 1.98 2.64 3 4 C2.34 5.32 1.68 6.64 1 8 C0.34 8 -0.32 8 -1 8 C-0.67 5.36 -0.34 2.72 0 0 Z " fill="#2E2F2C" transform="translate(756,695)"/>
<path d="M0 0 C0.33 0.66 0.66 1.32 1 2 C1.99 1.67 2.98 1.34 4 1 C3.67 3.64 3.34 6.28 3 9 C0.87491756 5.81237635 0.4979837 3.73487777 0 0 Z " fill="#222522" transform="translate(810,666)"/>
<path d="M0 0 C0.66 0.33 1.32 0.66 2 1 C0.68 2.32 -0.64 3.64 -2 5 C-3.32 4.34 -4.64 3.68 -6 3 C-4.03533587 1.93224776 -2.03144641 0.93446535 0 0 Z " fill="#2B2C2A" transform="translate(951,665)"/>
<path d="M0 0 C-2.13464912 2.45484649 -3.70720291 3.68134222 -7 4 C-7.66 3.34 -8.32 2.68 -9 2 C-5.86501708 0.14223235 -3.62528568 -0.20140476 0 0 Z " fill="#0F1410" transform="translate(611,289)"/>
<path d="M0 0 C2.31 0.33 4.62 0.66 7 1 C7 1.99 7 2.98 7 4 C4.69 3.34 2.38 2.68 0 2 C0 1.34 0 0.68 0 0 Z " fill="#2E2B34" transform="translate(966,252)"/>
</svg>
